<svg width="24" height="24" viewBox="0 0 24 24" fill="none" xmlns="http://www.w3.org/2000/svg">
<path d="M20.3542 15.3544L21.2821 15.7273C21.4314 15.3555 21.3446 14.9305 21.0613 14.6473C20.778 14.364 20.353 14.2771 19.9813 14.4265L20.3542 15.3544ZM8.64581 3.646L9.57369 4.01888C9.72307 3.64716 9.6362 3.22217 9.35292 2.93889C9.06964 2.65561 8.64465 2.56874 8.27293 2.71812L8.64581 3.646ZM19.9813 14.4265C19.0613 14.7962 18.0557 15.0002 17 15.0002V17.0002C18.3155 17.0002 19.5739 16.7457 20.7271 16.2822L19.9813 14.4265ZM17 15.0002C12.5817 15.0002 9 11.4185 9 7.00018H7C7 12.523 11.4772 17.0002 17 17.0002V15.0002ZM9 7.00018C9 5.9445 9.20396 4.93891 9.57369 4.01888L7.71794 3.27311C7.25452 4.42625 7 5.68472 7 7.00018H9ZM4 12.0002C4 8.63732 6.07526 5.75676 9.0187 4.57387L8.27293 2.71812C4.59771 4.19508 2 7.79306 2 12.0002H4ZM12 20.0002C7.58172 20.0002 4 16.4185 4 12.0002H2C2 17.523 6.47715 22.0002 12 22.0002V20.0002ZM19.4263 14.9815C18.2434 17.9249 15.3629 20.0002 12 20.0002V22.0002C16.2071 22.0002 19.8051 19.4025 21.2821 15.7273L19.4263 14.9815Z" fill="#888b83"/>
</svg>
