<svg width="44" height="44" viewBox="0 0 44 44" fill="none" xmlns="http://www.w3.org/2000/svg">
<path d="M31.167 36.6673H40.3337V33.0007C40.3337 29.9631 37.8712 27.5007 34.8337 27.5007C33.0817 27.5007 31.5211 28.3198 30.5139 29.596M31.167 36.6673H12.8337M31.167 36.6673V33.0007C31.167 31.7975 30.9352 30.6486 30.5139 29.596M12.8337 36.6673H3.66699V33.0007C3.66699 29.9631 6.12943 27.5007 9.16699 27.5007C10.9189 27.5007 12.4796 28.3198 13.4868 29.596M12.8337 36.6673V33.0007C12.8337 31.7975 13.0654 30.6486 13.4868 29.596M13.4868 29.596C14.8384 26.2192 18.1408 23.834 22.0003 23.834C25.8598 23.834 29.1622 26.2192 30.5139 29.596M27.5003 12.834C27.5003 15.8716 25.0379 18.334 22.0003 18.334C18.9628 18.334 16.5003 15.8716 16.5003 12.834C16.5003 9.79642 18.9628 7.33398 22.0003 7.33398C25.0379 7.33398 27.5003 9.79642 27.5003 12.834ZM38.5003 18.334C38.5003 20.359 36.8587 22.0007 34.8337 22.0007C32.8086 22.0007 31.167 20.359 31.167 18.334C31.167 16.3089 32.8086 14.6673 34.8337 14.6673C36.8587 14.6673 38.5003 16.3089 38.5003 18.334ZM12.8337 18.334C12.8337 20.359 11.192 22.0007 9.16699 22.0007C7.14195 22.0007 5.50033 20.359 5.50033 18.334C5.50033 16.3089 7.14195 14.6673 9.16699 14.6673C11.192 14.6673 12.8337 16.3089 12.8337 18.334Z" stroke="#111827" stroke-width="3.66667" stroke-linecap="round" stroke-linejoin="round"/>
</svg>
