<svg width="44" height="44" viewBox="0 0 44 44" fill="none" xmlns="http://www.w3.org/2000/svg">
<g clip-path="url(#clip0_53_4249)">
<path d="M20.2564 5.36551C20.8053 3.67652 23.1947 3.67652 23.7436 5.3655L26.5281 13.9343C26.7736 14.6897 27.4774 15.201 28.2716 15.2011L37.2815 15.2014C39.0575 15.2015 39.7959 17.474 38.3591 18.5179L31.0702 23.8141C30.4277 24.2809 30.1588 25.1084 30.4042 25.8637L33.1881 34.4327C33.7368 36.1218 31.8037 37.5262 30.3669 36.4824L23.0776 31.1868C22.435 30.72 21.565 30.72 20.9224 31.1868L13.6331 36.4824C12.1963 37.5262 10.2632 36.1218 10.8119 34.4327L13.5958 25.8637C13.8412 25.1084 13.5723 24.2809 12.9298 23.8141L5.64086 18.5179C4.20415 17.474 4.94253 15.2015 6.71845 15.2014L15.7284 15.2011C16.5226 15.201 17.2264 14.6897 17.4719 13.9343L20.2564 5.36551Z" stroke="#111827" stroke-width="3.66667"/>
</g>
<defs>
<clipPath id="clip0_53_4249">
<rect width="44" height="44" fill="white"/>
</clipPath>
</defs>
</svg>
