<svg width="469" height="404" viewBox="0 0 469 404" fill="none" xmlns="http://www.w3.org/2000/svg">
<path d="M87.1324 59.2695C93.0538 62.8531 98.2115 67.5679 102.311 73.1447C106.41 78.7215 109.371 85.0511 111.024 91.7722C112.677 98.4933 112.99 105.474 111.946 112.316C110.901 119.158 108.519 125.728 104.935 131.649C101.352 137.571 96.6368 142.728 91.06 146.827C85.4832 150.927 79.1535 153.888 72.4325 155.541C65.7114 157.194 58.7305 157.507 51.8885 156.462C45.0464 155.418 38.4771 153.035 32.5556 149.452C20.6938 142.133 12.1798 130.45 8.84646 116.917C5.51313 103.383 7.62699 89.0824 14.733 77.0921C29.8426 52.1009 62.2599 44.9322 87.0928 59.2695C91.0533 61.5864 95.0139 55.5268 91.0533 53.19C68.9137 40.4766 41.2095 41.7835 21.3472 58.3982C11.8628 66.3271 5.06087 76.9935 1.87249 88.9373C-1.31589 100.881 -0.734856 113.518 3.53605 125.119C7.80696 136.72 15.559 146.717 25.7309 153.743C35.9028 160.768 47.9973 164.477 60.3589 164.363C73.4066 164.279 86.0705 159.94 96.428 152.004C106.785 144.068 114.271 132.97 117.748 120.394C121.224 107.817 120.503 94.4501 115.692 82.3212C110.881 70.1923 102.245 59.9643 91.0929 53.19C87.1324 50.7741 83.1718 56.8337 87.1324 59.2695Z" fill="#F1DF6F"/>
<path d="M101.154 319.876C104.263 297.697 115.016 247.694 115.888 225.258" stroke="#000" stroke-width="3.82196" stroke-linecap="round" stroke-linejoin="round"/>
<path d="M187.948 285.915C178.779 267.459 171.235 256.488 166.165 238.566" stroke="#000" stroke-width="3.82196" stroke-linecap="round" stroke-linejoin="round"/>
<path d="M145.096 191.792C138.746 190.103 131.987 190.986 126.283 194.247C120.802 197.482 116.785 202.712 115.075 208.842L114.203 215.337C114.179 219.693 115.329 223.975 117.53 227.734V227.734C118.851 230.665 120.171 233.629 121.491 236.625L119.016 230.803C128.917 254.567 135.472 279.657 145.314 303.5C149.532 313.738 153.235 325.639 163.374 331.62C169.229 334.773 175.934 335.987 182.523 335.085L190.86 334.333C203.158 333.204 215.475 332.075 227.832 331.442C242.507 330.507 257.232 330.712 271.874 332.056C277.716 332.669 285.142 328.907 289.142 324.907C291.41 322.641 293.209 319.951 294.436 316.989C295.663 314.028 296.295 310.854 296.295 307.648C296.295 304.443 295.663 301.269 294.436 298.308C293.209 295.346 291.41 292.656 289.142 290.39L284.191 286.568C280.465 284.369 276.221 283.2 271.894 283.182C255.428 281.717 238.87 281.611 222.387 282.865C214.466 283.36 206.544 284.034 198.623 284.746L187.514 285.756" stroke="#000" stroke-width="3.82196" stroke-linecap="round" stroke-linejoin="round"/>
<path d="M260.011 281.538C254.308 250.645 245.476 209.415 239.08 197.93C232.485 186.048 217.019 184.068 205.672 178.681L205.197 178.562L144.996 191.296" stroke="#000" stroke-width="3.82196" stroke-linecap="round" stroke-linejoin="round"/>
<path d="M214.228 81.4691C209.288 81.3491 204.472 83.0156 200.663 86.1624C198.644 81.79 195.444 78.0681 191.424 75.4161C187.404 72.764 182.723 71.2872 177.909 71.1518C163.334 70.9142 151.195 83.2514 150.779 98.7174C150.477 104.956 152.32 111.109 156.003 116.153C159.685 121.198 164.984 124.829 171.018 126.441C172.432 129.586 174.108 132.607 176.028 135.472C177.737 138.335 180.082 140.767 182.88 142.581C186.008 144.403 188.385 144.918 188.563 140.858C188.682 138.422 188.563 135.947 188.563 133.472C197.182 132.324 205.252 128.596 211.713 122.778C212.247 122.778 212.782 122.778 213.317 122.778C216.067 122.898 218.813 122.468 221.395 121.513C223.977 120.558 226.342 119.097 228.351 117.215C230.361 115.334 231.974 113.07 233.097 110.557C234.22 108.044 234.83 105.331 234.89 102.579C234.951 99.827 234.462 97.0905 233.451 94.5301C232.439 91.9697 230.927 89.637 229.003 87.6689C227.078 85.7007 224.78 84.1368 222.242 83.0687C219.705 82.0007 216.98 81.4502 214.228 81.4493V81.4691Z" fill="#F50F22"/>
<path d="M186.009 130.699C186.167 131.491 187.672 144.561 187.989 145.392C190.999 155.036 200.742 164.364 210.347 162.997L217.693 162.146C222.84 161.415 227.486 158.67 230.609 154.514C233.732 150.359 235.077 145.133 234.348 139.986L230.031 109.668" stroke="#000" stroke-width="2.51497" stroke-miterlimit="10"/>
<path d="M219.455 125.906V127.589C219.442 127.815 219.49 128.041 219.594 128.242C219.66 128.446 219.776 128.63 219.931 128.777C220.082 128.937 220.273 129.053 220.485 129.114C220.679 129.22 220.899 129.268 221.119 129.252H221.574C221.848 129.173 222.099 129.031 222.307 128.836C222.462 128.68 222.583 128.495 222.665 128.29C222.747 128.086 222.786 127.868 222.782 127.648V125.965C222.788 125.739 222.741 125.515 222.644 125.311C222.563 125.111 222.441 124.929 222.287 124.777C222.14 124.622 221.956 124.506 221.753 124.44C221.552 124.334 221.325 124.286 221.099 124.302H220.663C220.388 124.376 220.136 124.519 219.931 124.717C219.773 124.873 219.649 125.058 219.564 125.262C219.479 125.466 219.435 125.685 219.436 125.906H219.455Z" fill="#000"/>
<path d="M224.07 140.124C223.815 140.226 223.549 140.299 223.278 140.341H223.713C223.43 140.371 223.145 140.371 222.862 140.341H223.297C223.011 140.311 222.73 140.238 222.466 140.124L222.862 140.282C222.667 140.203 222.481 140.103 222.307 139.985C221.916 139.764 221.453 139.707 221.02 139.826C220.811 139.882 220.616 139.979 220.446 140.112C220.276 140.244 220.134 140.41 220.03 140.599C219.913 140.79 219.837 141.002 219.806 141.224C219.776 141.445 219.791 141.671 219.852 141.886C219.995 142.291 220.266 142.639 220.624 142.876C220.967 143.087 221.332 143.26 221.713 143.391C222.104 143.526 222.509 143.612 222.921 143.648C223.257 143.679 223.595 143.679 223.931 143.648C224.281 143.6 224.625 143.52 224.961 143.411C225.166 143.356 225.356 143.255 225.515 143.114C225.699 142.996 225.849 142.832 225.951 142.638C226.176 142.249 226.24 141.787 226.129 141.351C226.002 140.938 225.727 140.585 225.357 140.361C225.166 140.246 224.953 140.17 224.732 140.139C224.51 140.109 224.285 140.124 224.07 140.183V140.124Z" fill="#000"/>
<path d="M230.347 109.192L230.702 108.816L230.347 109.192Z" fill="#000"/>
<path d="M230.862 123.075L236.803 130.462L237.654 131.531V129.174L233.694 132.996C233.385 133.311 233.212 133.734 233.212 134.175C233.212 134.615 233.385 135.038 233.694 135.353C234.012 135.663 234.438 135.836 234.882 135.836C235.326 135.836 235.752 135.663 236.07 135.353L240.031 131.531C240.334 131.214 240.504 130.792 240.504 130.353C240.504 129.914 240.334 129.491 240.031 129.174L234.09 121.788L233.238 120.719C232.926 120.406 232.502 120.23 232.06 120.23C231.618 120.23 231.194 120.406 230.882 120.719C230.569 121.031 230.394 121.455 230.394 121.897C230.394 122.339 230.569 122.763 230.882 123.075H230.862Z" fill="#000"/>
<path d="M190.919 152.977L187.375 179.493C187.318 181.035 187.807 182.548 188.756 183.765C189.705 184.982 191.053 185.826 192.563 186.146V186.146C194.116 186.234 195.649 185.772 196.895 184.842C198.141 183.911 199.019 182.571 199.375 181.057L201.95 161.908" stroke="#000" stroke-width="2.51497" stroke-miterlimit="10"/>
<path d="M217.833 86.7969C221.45 88.2148 224.437 90.8855 226.249 94.322L217.833 86.7969Z" fill="#000"/>
<path d="M217.674 87.6078C221.076 88.9815 223.881 91.5137 225.596 94.7566C226.11 95.7071 227.576 94.7566 227.061 93.9051C225.127 90.2893 221.967 87.4811 218.15 85.9839C217.934 85.9224 217.704 85.9482 217.507 86.0557C217.311 86.1632 217.164 86.3437 217.1 86.5582C217.045 86.776 217.076 87.0068 217.186 87.2024C217.297 87.398 217.479 87.5432 217.694 87.6078H217.674Z" fill="white"/>
<path d="M189.652 136.283C191.851 136.283 193.633 134.501 193.633 132.303C193.633 130.104 191.851 128.322 189.652 128.322C187.454 128.322 185.672 130.104 185.672 132.303C185.672 134.501 187.454 136.283 189.652 136.283Z" fill="white"/>
<path d="M191.968 132.383C191.959 132.495 191.959 132.607 191.968 132.719C191.968 132.719 191.968 132.343 191.968 132.6L191.849 133.115C191.845 133.175 191.845 133.234 191.849 133.294C191.849 133.294 191.493 133.749 191.513 133.828C191.533 133.907 191.75 133.571 191.513 133.828L191.335 134.026C191.283 134.067 191.237 134.114 191.196 134.165C190.899 134.403 191.196 134.165 191.196 134.165C191.045 134.248 190.899 134.34 190.76 134.442H190.582H190.424L189.909 134.561C189.691 134.561 190.344 134.561 189.909 134.561H189.354C189.354 134.561 188.958 134.561 189.235 134.561H188.938C188.84 134.549 188.74 134.549 188.641 134.561C188.641 134.561 188.998 134.739 188.641 134.561L188.186 134.304C187.869 134.145 188.186 134.304 188.186 134.304C188.186 134.304 188.503 134.462 188.186 134.304C188.186 134.304 187.849 133.888 187.75 133.848C187.651 133.808 187.928 134.125 187.75 133.947C187.69 133.859 187.637 133.766 187.592 133.67C187.585 133.611 187.585 133.551 187.592 133.492C187.394 133.175 187.592 133.848 187.592 133.492C187.53 133.323 187.477 133.151 187.433 132.977C187.433 132.977 187.433 132.818 187.433 132.779C187.433 132.739 187.433 133.076 187.433 132.898C187.433 132.719 187.433 132.779 187.433 132.719C187.433 132.66 187.433 132.402 187.433 132.224C187.433 132.046 187.433 132.6 187.433 132.224C187.424 132.152 187.424 132.079 187.433 132.006C187.504 131.841 187.557 131.668 187.592 131.491V131.709V131.511C187.592 131.511 187.691 131.333 187.75 131.234L187.909 131.036C187.631 131.333 187.909 130.838 187.909 131.036L188.126 130.501C188.126 130.501 188.324 130.244 188.126 130.501L188.285 130.383L188.463 130.264H188.661C188.82 130.264 188.78 130.264 188.542 130.264C188.641 130.264 188.938 130.125 189.037 130.105H189.255C188.938 130.105 189.612 130.006 189.255 130.105H190.107C190.307 130.183 190.512 130.25 190.721 130.303C190.384 130.125 190.721 130.303 190.721 130.303L191.037 130.482L191.216 130.6L191.374 130.739C191.513 130.858 191.612 130.996 191.731 131.115C191.552 130.798 191.849 131.234 191.731 131.115C191.795 131.194 191.848 131.28 191.889 131.373L192.028 131.65C191.889 131.254 192.028 131.65 192.028 131.65C192.066 131.858 192.119 132.063 192.186 132.264C192.186 132.264 192.186 131.828 192.186 132.145C192.186 132.462 192.186 132.442 192.186 132.581C192.186 133.024 192.361 133.449 192.672 133.764C192.983 134.079 193.406 134.259 193.849 134.264C194.289 134.249 194.707 134.066 195.016 133.753C195.325 133.44 195.503 133.021 195.513 132.581C195.518 131.415 195.169 130.276 194.511 129.313C193.853 128.351 192.918 127.612 191.83 127.194C190.764 126.797 189.604 126.732 188.501 127.008C187.398 127.284 186.404 127.887 185.651 128.739C184.861 129.62 184.367 130.727 184.24 131.903C184.114 133.08 184.36 134.267 184.945 135.296C185.529 136.325 186.422 137.144 187.498 137.638C188.574 138.131 189.777 138.274 190.938 138.046C192.21 137.794 193.357 137.114 194.189 136.12C195.021 135.125 195.488 133.877 195.513 132.581C195.513 132.139 195.338 131.716 195.026 131.404C194.714 131.092 194.291 130.917 193.849 130.917C193.63 130.89 193.407 130.905 193.193 130.964C192.979 131.023 192.779 131.123 192.605 131.259C192.43 131.395 192.284 131.565 192.174 131.758C192.065 131.95 191.995 132.163 191.968 132.383Z" fill="#000"/>
<path d="M203.375 161.829L188.998 169.928L190.444 150.125C192.328 152.863 194.499 155.392 196.919 157.67C198.976 159.199 201.132 160.588 203.375 161.829Z" fill="#000"/>
<path d="M182.415 168.799L205.808 170.887L204.726 183.017C204.449 186.119 202.951 188.984 200.562 190.982C198.172 192.98 195.087 193.947 191.985 193.67C190.449 193.533 188.955 193.095 187.589 192.38C186.222 191.666 185.009 190.689 184.02 189.506C183.031 188.323 182.284 186.957 181.823 185.485C181.362 184.013 181.195 182.465 181.332 180.929L182.415 168.799Z" fill="#F1DF6F"/>
<path d="M241.12 229.812C242.744 241.001 249.457 270.389 251.022 281.577" stroke="#000" stroke-width="3.82196" stroke-linecap="round" stroke-linejoin="round"/>
<path d="M23.4852 161.09C26.5476 161.09 29.03 158.607 29.03 155.545C29.03 152.482 26.5476 150 23.4852 150C20.4229 150 17.9404 152.482 17.9404 155.545C17.9404 158.607 20.4229 161.09 23.4852 161.09Z" stroke="#000" stroke-width="1.96049" stroke-miterlimit="10"/>
<path d="M23.3075 164.141H26.0799C29.6093 164.141 32.9941 165.543 35.4898 168.038C37.9854 170.534 39.3875 173.919 39.3875 177.448V177.448H10C10 173.919 11.402 170.534 13.8977 168.038C16.3933 165.543 19.7782 164.141 23.3075 164.141V164.141Z" stroke="#000" stroke-width="1.96049" stroke-linecap="round" stroke-linejoin="round"/>
<path d="M395.294 257H392.485C351.9 257 319 289.897 319 330.477C319 371.057 351.9 403.954 392.485 403.954H395.294C435.879 403.954 468.779 371.057 468.779 330.477C468.779 289.897 435.879 257 395.294 257Z" fill="#000"/>
<path d="M296.032 307.023H194.404C190.335 307.023 187.037 310.322 187.037 314.39V314.41C187.037 318.478 190.335 321.777 194.404 321.777H296.032C300.101 321.777 303.399 318.478 303.399 314.41V314.39C303.399 310.322 300.101 307.023 296.032 307.023Z" fill="#000"/>
<path d="M432.871 317.758H59.21C56.0572 317.885 53.0757 319.227 50.8899 321.502C48.7041 323.778 47.4834 326.811 47.4834 329.966C47.4834 333.122 48.7041 336.155 50.8899 338.43C53.0757 340.706 56.0572 342.048 59.21 342.175H432.871C436.023 342.048 439.005 340.706 441.191 338.43C443.377 336.155 444.597 333.122 444.597 329.966C444.597 326.811 443.377 323.778 441.191 321.502C439.005 319.227 436.023 317.885 432.871 317.758Z" fill="#F1DF6F"/>
<path d="M323.4 177.532C325.698 176.483 327.995 175.354 330.252 174.186" stroke="#000" stroke-width="1.26738" stroke-linecap="round" stroke-linejoin="round"/>
<path d="M342.808 166.483C349.035 162.114 354.349 156.571 358.452 150.165C366.373 137.373 366.968 119.075 356.472 108.381C348.175 99.9848 334.946 98.1035 323.441 100.797C319.63 101.473 316.083 103.201 313.203 105.787C311.792 107.104 310.805 108.811 310.368 110.691C309.931 112.57 310.063 114.538 310.747 116.342C311.784 118.27 313.342 119.869 315.242 120.956C322.807 125.788 332.511 126.422 341.204 124.204C347.558 122.454 353.455 119.341 358.482 115.079C363.51 110.818 367.548 105.511 370.314 99.5293" stroke="#000" stroke-width="1.26738" stroke-linecap="round" stroke-linejoin="round" stroke-dasharray="14.73 14.73"/>
<path d="M372.79 92.6378C373.465 90.1888 373.916 87.6832 374.137 85.1523" stroke="#000" stroke-width="1.26738" stroke-linecap="round" stroke-linejoin="round"/>
<path d="M405.051 56.3699L369.839 44.465C369.124 44.2233 368.349 44.6069 368.107 45.3218L359.304 71.3603C359.062 72.0751 359.446 72.8506 360.161 73.0923L395.373 84.9972C396.088 85.2389 396.863 84.8553 397.105 84.1404L405.908 58.1019C406.15 57.387 405.766 56.6116 405.051 56.3699Z" stroke="#000" stroke-width="1.80206" stroke-linecap="round" stroke-linejoin="round"/>
<path d="M368.115 45.3281L383.106 67.6658L405.048 56.3781" stroke="#000" stroke-width="1.80206" stroke-linecap="round" stroke-linejoin="round"/>
<path d="M359.303 71.3892L377.898 61.666" stroke="#000" stroke-width="1.80206" stroke-linecap="round" stroke-linejoin="round"/>
<path d="M389.998 64.8945L397.107 84.1627" stroke="#000" stroke-width="1.80206" stroke-linecap="round" stroke-linejoin="round"/>
<path d="M301.598 1.02934H255.715C251.289 1.02044 246.955 2.29376 243.237 4.69537C239.519 7.09699 236.576 10.5241 234.764 14.5624C232.953 18.6008 232.349 23.0775 233.027 27.4514C233.705 31.8253 235.636 35.9091 238.585 39.2093L237.853 55.6655L249.002 45.9225C251.18 46.5766 253.441 46.9101 255.715 46.9126H301.598C307.566 46.7373 313.231 44.2433 317.39 39.9601C321.549 35.6768 323.876 29.9414 323.876 23.971C323.876 18.0006 321.549 12.2652 317.39 7.9819C313.231 3.69864 307.566 1.2047 301.598 1.02934V1.02934Z" stroke="#000" stroke-width="2.0595" stroke-linecap="round" stroke-linejoin="round"/>
<path d="M293.954 15.6035H259.517" stroke="#000" stroke-width="1.70305" stroke-linecap="round" stroke-linejoin="round"/>
<path d="M281.558 24.3379H260.329" stroke="#000" stroke-width="1.70305" stroke-linecap="round" stroke-linejoin="round"/>
<path d="M298.31 35.2695H275.715" stroke="#000" stroke-width="1.70305" stroke-linecap="round" stroke-linejoin="round"/>
<path d="M44.8542 143.789H4.79297V183.85H44.8542V143.789Z" stroke="#000" stroke-width="1.70305" stroke-linecap="round" stroke-linejoin="round"/>
<path d="M273.281 320.133H418.574C420.027 320.052 421.403 319.458 422.459 318.457C423.514 317.456 424.18 316.113 424.337 314.667L441.328 210.029C441.542 209.123 441.558 208.182 441.375 207.27C441.192 206.358 440.813 205.497 440.266 204.744C439.719 203.992 439.015 203.367 438.204 202.912C437.393 202.457 436.493 202.182 435.565 202.107H290.212C288.758 202.184 287.38 202.777 286.324 203.778C285.267 204.78 284.603 206.125 284.449 207.573L267.459 312.211C267.244 313.121 267.23 314.067 267.416 314.983C267.603 315.899 267.986 316.763 268.54 317.517C269.094 318.27 269.804 318.894 270.623 319.346C271.441 319.797 272.348 320.066 273.281 320.133Z" fill="#FDFEFE" stroke="#000" stroke-width="3.82196" stroke-linecap="round" stroke-linejoin="round"/>
<path d="M355.015 268.657C360.844 268.657 365.57 263.931 365.57 258.102C365.57 252.273 360.844 247.547 355.015 247.547C349.186 247.547 344.46 252.273 344.46 258.102C344.46 263.931 349.186 268.657 355.015 268.657Z" stroke="#000" stroke-width="2.0595" stroke-linecap="round" stroke-linejoin="round"/>
<path d="M406.157 175.296C416 175.296 423.979 167.316 423.979 157.473C423.979 147.63 416 139.65 406.157 139.65C396.313 139.65 388.334 147.63 388.334 157.473C388.334 167.316 396.313 175.296 406.157 175.296Z" stroke="#000" stroke-width="2.0595" stroke-linecap="round" stroke-linejoin="round"/>
<path d="M399.186 153.868L400.989 160.541C401.265 162.381 401.941 164.139 402.969 165.69C403.477 166.309 404.19 166.725 404.978 166.863C405.766 167.001 406.578 166.852 407.266 166.443C408.835 165.21 410.125 163.657 411.048 161.888L427.267 138.421C428.356 136.857 425.802 135.372 424.712 136.936L411.227 156.442L407.939 161.076C407.462 161.872 406.918 162.627 406.315 163.334C405.84 163.848 405.484 164.185 404.989 163.631C404.642 163.017 404.407 162.346 404.296 161.65L403.523 158.838L401.998 153.076C401.893 152.7 401.643 152.382 401.304 152.19C400.964 151.999 400.562 151.951 400.187 152.056C399.811 152.161 399.493 152.411 399.301 152.751C399.11 153.09 399.062 153.492 399.167 153.868H399.186Z" fill="#000"/>
</svg>
