<svg width="520" height="398" viewBox="0 0 520 398" fill="none" xmlns="http://www.w3.org/2000/svg">
<g clip-path="url(#clip0_16_2410)">
<path d="M300.81 232.708L223.89 278.946C213.453 285.23 203.034 291.61 192.539 297.798C189.431 299.72 186.284 301.315 183.08 302.968C179.55 304.794 177.478 303.564 187.378 301.219C185.813 301.719 184.275 302.302 182.773 302.968C179.319 304.249 175.815 305.306 172.259 306.139C170.551 306.562 159.001 308.407 167.404 307.388C175.808 306.37 163.03 307.619 161.303 307.696C158.137 307.811 154.952 307.811 151.71 307.696C150.149 307.453 148.569 307.351 146.99 307.388C149.522 306.946 157.581 309.079 150.232 307.696C144.033 306.536 137.908 305.009 131.89 303.122C122.296 300.066 140.677 307.58 131.659 302.91C128.129 301.085 124.56 299.394 121.145 297.356C119.744 296.511 109.882 289.9 116.924 294.82C123.966 299.739 114.545 292.59 113.24 291.418C110.803 289.247 108.501 286.96 106.275 284.577C105.163 283.385 104.107 282.117 102.994 280.906C99.1571 276.736 109.691 290.073 105.163 283.539C101.503 278.383 98.2197 272.968 95.3389 267.338C90.4654 257.556 98.9268 277.197 95.2046 267.05C93.9863 263.596 92.9489 260.081 92.0963 256.519C91.3097 253.482 91.1178 249.965 90.0625 247.044C93.2283 255.75 91.0219 255.519 90.7533 251.503C90.6381 249.927 90.4463 248.332 90.3503 246.737C90.1393 243.182 90.1009 239.588 90.216 236.013C90.216 234.437 90.4846 232.862 90.4846 231.286C90.4846 225.924 88.7195 241.913 90.0817 234.514C91.1149 228.284 92.5766 222.132 94.4563 216.104C94.936 214.662 95.6651 213.125 96.0296 211.626C93.2859 222.388 93.0365 218.833 94.5522 215.815C96.3366 212.26 97.9867 208.686 99.9821 205.246C101.575 202.517 103.704 199.98 105.143 197.193C99.3873 208.378 102.496 200.845 105.7 197.193C107.849 194.759 110.1 192.415 112.453 190.16C113.643 189.026 114.89 187.969 116.08 186.835C122.622 180.589 106.774 193.254 114.391 188.2C124.081 181.781 134.058 175.862 144.035 169.866L231.546 117.228C251.788 105.063 260.48 75.5834 247.01 55.2318C233.541 34.8801 206.718 26.6934 185.114 39.7422L102.016 89.7084C91.3097 96.0887 80.143 102.123 69.8972 109.272C38.028 131.449 14.6585 163.216 4.81568 201.018C-13.8147 272.585 22.9088 354.03 91.6167 383.587C126.594 398.634 165.505 402.804 202.344 391.562C220.724 385.931 236.88 376.534 253.169 366.733L347.185 310.155C367.427 297.991 376.118 268.53 362.649 248.159C349.18 227.788 322.357 219.64 300.753 232.785L300.81 232.708Z" fill="#F1DF6F"/>
<path d="M348.701 58.3449C344.516 64.3788 342.085 71.4573 341.678 78.7927C341.489 82.4402 342.093 86.0854 343.448 89.4764C344.803 92.8674 346.877 95.9234 349.526 98.4332C352.582 100.927 356.006 102.93 359.676 104.372C373.279 110.444 388.456 115.345 402.865 111.559C406.261 110.675 409.945 108.888 410.847 105.486C411.384 103.468 408.717 103.564 407.7 101.777C404.477 96.0118 392.734 94.09 387.036 90.7461C381.337 87.4022 382.834 78.4083 384.216 71.9127C384.731 70.0013 385.561 68.1892 386.671 66.5509C390.893 59.5749 396.553 51.8878 404.841 49.966C409.389 48.8706 423.51 49.1204 417.581 40.7222C408.487 27.8271 382.565 33.7654 371.36 39.0503C362.192 43.2926 354.357 49.9647 348.701 58.3449Z" fill="#F50F22"/>
<path d="M132.945 234.899L476.791 242.586C478.437 242.622 480.072 242.328 481.603 241.722C483.133 241.116 484.527 240.21 485.703 239.057C486.879 237.905 487.813 236.528 488.451 235.009C489.088 233.489 489.417 231.858 489.416 230.21V25.9631C489.417 22.73 488.155 19.625 485.9 17.3121C483.644 14.9992 480.575 13.6621 477.348 13.5868L143.344 5.89972C140.117 5.82583 136.988 7.01837 134.626 9.22286C132.263 11.4274 130.855 14.4692 130.7 17.6994L120.877 221.927C120.797 223.577 121.048 225.227 121.615 226.779C122.182 228.331 123.054 229.754 124.179 230.963C125.304 232.172 126.659 233.143 128.164 233.819C129.67 234.495 131.296 234.862 132.945 234.899V234.899Z" stroke="#000" stroke-width="11.7422" stroke-miterlimit="10"/>
<path d="M136.398 227.346L472.34 234.879V26.4625L142.768 19.8516L136.398 227.346Z" stroke="#000" stroke-width="1.36448" stroke-miterlimit="10"/>
<path d="M304 22.5C304 24.6716 300.979 175.922 300 231.5" stroke="#000" stroke-width="1.3837" stroke-miterlimit="10"/>
<path d="M163.894 123.781L487.594 133.448" stroke="#000" stroke-width="1.3837" stroke-miterlimit="10"/>
<path d="M125.769 235.533C125.769 235.533 20.2419 299.913 21.0861 302.68C21.9303 305.447 515.127 327.509 517.889 327.509C520.652 327.509 487.593 243.816 487.593 243.816L125.769 235.533Z" stroke="#000" stroke-width="3.92048" stroke-linecap="round" stroke-linejoin="round"/>
<path d="M54.1444 326.434C107.867 329.605 161.59 332.891 215.313 335.85C265.199 338.605 315.136 340.969 365.124 342.942C397.69 344.223 430.25 345.312 462.804 346.209C469.097 346.382 469.097 336.6 462.804 336.427C407.802 334.851 352.799 332.808 297.797 330.296C248.219 327.971 198.64 325.184 149.081 322.283L54.2404 316.652C47.9663 316.267 47.9855 326.049 54.2404 326.434H54.1444Z" fill="#000"/>
<path d="M263.511 260.939C257.7 266.264 252.191 271.91 247.011 277.851" stroke="#000" stroke-width="1.3837" stroke-linecap="round" stroke-linejoin="round"/>
<path d="M246.876 259.555C241.059 264.879 235.544 270.525 230.356 276.467" stroke="#000" stroke-width="1.3837" stroke-linecap="round" stroke-linejoin="round"/>
<path d="M284.578 259.439C277.753 265.51 271.343 272.033 265.392 278.965" stroke="#000" stroke-width="1.3837" stroke-linecap="round" stroke-linejoin="round"/>
<path d="M302.556 261.227C301.808 262.264 293.078 274.852 288.281 281.598" stroke="#000" stroke-width="1.3837" stroke-linecap="round" stroke-linejoin="round"/>
<path d="M183.118 123.877C186.246 117.881 192.059 113.384 201.787 111.078L218.729 108.541C221.972 108.407 225.22 108.465 228.457 108.714L252.248 111.559C263.645 112.904 272.893 119.246 276.826 127.702" stroke="#000" stroke-width="3.19019" stroke-miterlimit="10" stroke-linecap="round"/>
<path d="M223.257 89.8807L236.976 88.6699L236.247 109.003C236.217 109.899 236.011 110.78 235.641 111.597C235.271 112.413 234.744 113.148 234.09 113.76C233.436 114.373 232.668 114.85 231.83 115.164C230.992 115.479 230.1 115.625 229.205 115.594C228.306 115.572 227.419 115.371 226.598 115.004C225.776 114.637 225.035 114.11 224.418 113.454C223.801 112.798 223.319 112.027 223.001 111.183C222.684 110.34 222.536 109.442 222.566 108.541L223.257 89.8807Z" fill="white" stroke="#000" stroke-width="2.556" stroke-miterlimit="10" stroke-linecap="round"/>
<path d="M224.907 88.0566C220.724 87.1533 215.947 86.7113 212.014 84.9048C208.661 83.3348 205.935 80.6794 204.275 77.3669C202.614 74.0545 202.116 70.2783 202.861 66.6477C204.588 57.9419 206.564 49.3514 208.426 40.588L210.613 30.2871L208.694 31.3826L247.509 39.6848L253.092 40.8763L251.98 38.9545L247.95 57.8843L245.264 70.4913C244.861 72.8187 244.329 75.1219 243.672 77.3906C242.362 81.1259 239.751 84.2629 236.318 86.2256C232.885 88.1884 228.861 88.8453 224.984 88.0758C223.065 87.6914 222.144 90.7279 224.14 91.1122C227.437 91.8073 230.857 91.6422 234.073 90.6326C237.288 89.623 240.19 87.8029 242.501 85.3468C245.154 82.232 246.888 78.4389 247.509 74.3925L253.092 48.1984L254.896 39.7616C254.996 39.3593 254.936 38.9335 254.729 38.5748C254.521 38.216 254.182 37.9524 253.783 37.8398L215.045 29.5569L209.462 28.3653C209.063 28.2689 208.642 28.3286 208.286 28.5322C207.929 28.7357 207.663 29.0678 207.543 29.4608L201.787 56.0778C201.096 59.364 200.348 62.6311 199.696 65.9174C198.925 69.6108 199.226 73.4479 200.562 76.9757C201.898 80.5036 204.214 83.5749 207.236 85.8273C211.994 89.325 218.326 89.9207 223.948 91.1122C226.039 91.5158 226.902 88.4025 224.907 88.0566Z" fill="#000"/>
<path d="M224.984 58.0572L224.773 59.979H227.843V58.4607C227.865 58.2551 227.825 58.0477 227.728 57.865C227.661 57.6745 227.549 57.503 227.402 57.3653C227.269 57.2169 227.096 57.1101 226.903 57.0578C226.73 56.9546 226.529 56.9076 226.328 56.9233C225.92 56.927 225.53 57.0849 225.234 57.3653C224.957 57.6635 224.8 58.0536 224.793 58.4607V59.979C224.787 60.1857 224.833 60.3906 224.927 60.5747C225.047 60.8487 225.243 61.0827 225.491 61.2495C225.739 61.4163 226.029 61.5088 226.328 61.5164C226.736 61.5187 227.129 61.3599 227.421 61.0744L227.651 60.7669C227.788 60.5267 227.861 60.2554 227.863 59.979L228.074 58.0572C228.077 57.8507 228.031 57.6463 227.939 57.4614C227.875 57.2698 227.762 57.0979 227.613 56.9617C227.481 56.8206 227.316 56.7149 227.133 56.6543C226.949 56.5623 226.745 56.5161 226.539 56.5197C226.132 56.5271 225.743 56.6845 225.445 56.9617L225.215 57.2884C225.075 57.5205 225.002 57.7864 225.004 58.0572H224.984Z" fill="#000"/>
<path d="M205.299 55.3095L205.087 57.2313H208.157V55.6938C208.161 55.4873 208.115 55.283 208.023 55.0981C207.961 54.9098 207.856 54.7387 207.716 54.5986C207.576 54.4584 207.405 54.353 207.217 54.2909C207.033 54.1989 206.829 54.1528 206.622 54.1564C206.221 54.1591 205.836 54.3175 205.548 54.5984C205.266 54.8947 205.102 55.2845 205.087 55.6938V57.2313C205.081 57.4319 205.128 57.6306 205.222 57.8078C205.282 57.9971 205.387 58.1686 205.529 58.3075C205.67 58.451 205.84 58.5624 206.028 58.6342C206.211 58.729 206.417 58.769 206.622 58.7495C206.822 58.7502 207.019 58.7115 207.204 58.6357C207.388 58.5598 207.556 58.4483 207.697 58.3075L207.946 58C208.08 57.7658 208.153 57.5013 208.157 57.2313L208.349 55.3095C208.369 55.1039 208.329 54.8971 208.234 54.7137C208.167 54.529 208.055 54.364 207.908 54.2332C207.776 54.0794 207.603 53.9661 207.409 53.9065C207.232 53.8123 207.034 53.7659 206.833 53.772C206.63 53.7724 206.428 53.8133 206.24 53.8925C206.053 53.9717 205.882 54.0875 205.74 54.2332L205.51 54.5407C205.364 54.7702 205.291 55.0379 205.299 55.3095Z" fill="#000"/>
<path d="M196.204 48.2174C206.284 47.0425 215.902 43.3265 224.159 37.4169L221.914 36.5136C223.178 42.154 225.488 47.5063 228.726 52.2916C230.337 54.79 232.064 57.2115 233.81 59.6137C234.97 61.5473 236.671 63.0975 238.703 64.0723C240.621 64.8026 241.331 61.8238 239.509 61.1127C237.686 60.4017 235.997 57.4036 234.731 55.7317C233.465 54.0597 231.872 51.6767 230.587 49.5627C227.86 45.3516 225.911 40.6845 224.831 35.7834C224.766 35.5567 224.65 35.3479 224.493 35.1725C224.336 34.9971 224.14 34.8598 223.922 34.771C223.704 34.6821 223.469 34.6441 223.234 34.6597C222.999 34.6752 222.771 34.744 222.567 34.8609C214.782 40.4971 205.699 44.0673 196.166 45.2386C194.247 45.4692 194.247 48.5441 196.166 48.3135L196.204 48.2174Z" fill="#000"/>
<path d="M214.048 60.9395C213.722 60.9586 213.395 60.9586 213.069 60.9395H213.472L212.571 60.7858C212.169 60.6818 211.743 60.7369 211.381 60.9395C211.21 61.0301 211.065 61.1623 210.959 61.3239C210.826 61.4703 210.733 61.6492 210.69 61.8427C210.634 62.0414 210.618 62.2495 210.644 62.4544C210.671 62.6592 210.739 62.8566 210.844 63.0343C211.044 63.3766 211.366 63.6305 211.745 63.7453C212.501 63.9181 213.273 64.0146 214.048 64.0336C214.255 64.0461 214.461 63.9995 214.643 63.8991C214.829 63.8465 214.996 63.7394 215.122 63.5916C215.276 63.4592 215.389 63.286 215.449 63.0919C215.543 62.9078 215.589 62.7029 215.583 62.4962C215.577 62.0906 215.412 61.7038 215.122 61.4199C214.837 61.1337 214.452 60.9685 214.048 60.9587V60.9395Z" fill="#000"/>
<path d="M217.731 73.6623C218.134 73.4893 218.518 73.3356 218.902 73.1242L219.669 72.6437C219.841 72.5457 219.986 72.4072 220.091 72.2401C220.233 72.0993 220.326 71.918 220.36 71.7213C220.418 71.5203 220.418 71.3072 220.36 71.1063C220.343 70.9075 220.277 70.7161 220.168 70.549C219.968 70.2067 219.646 69.9527 219.266 69.8379H218.844C218.574 69.8395 218.31 69.9125 218.077 70.0493C217.613 70.373 217.118 70.6498 216.599 70.8757L216.964 70.7219C216.768 70.7555 216.587 70.8496 216.446 70.991C216.279 71.0968 216.141 71.242 216.043 71.4138C215.929 71.5841 215.869 71.7851 215.87 71.9903C215.813 72.1912 215.813 72.4043 215.87 72.6053L216.024 72.9704C216.158 73.2009 216.35 73.3929 216.58 73.5278L216.945 73.6815C217.21 73.7386 217.485 73.7386 217.751 73.6815L217.731 73.6623Z" fill="#000"/>
<path d="M212.973 62.361C213.472 60.8236 213.894 59.2669 214.278 57.691C214.347 57.4919 214.375 57.2808 214.359 57.0706C214.343 56.8604 214.284 56.6557 214.186 56.4693C214.088 56.2828 213.953 56.1185 213.789 55.9866C213.625 55.8547 213.435 55.7581 213.232 55.7026C213.029 55.6472 212.817 55.6341 212.609 55.6643C212.4 55.6944 212.201 55.7671 212.022 55.8779C211.843 55.9887 211.688 56.1352 211.568 56.3082C211.448 56.4813 211.365 56.6772 211.323 56.8839C210.94 58.4405 210.517 59.9972 210.019 61.5346C209.963 61.7315 209.947 61.9374 209.971 62.1405C209.995 62.3437 210.058 62.5401 210.158 62.7186C210.258 62.8971 210.392 63.0541 210.552 63.1807C210.713 63.3073 210.896 63.401 211.093 63.4564C211.49 63.5636 211.913 63.5109 212.271 63.3098C212.63 63.1087 212.896 62.7751 213.012 62.3802L212.973 62.361Z" fill="#000"/>
<path d="M230.701 72.6245C231.867 72.6245 232.812 71.678 232.812 70.5105C232.812 69.3429 231.867 68.3965 230.701 68.3965C229.536 68.3965 228.591 69.3429 228.591 70.5105C228.591 71.678 229.536 72.6245 230.701 72.6245Z" fill="#F1DF6F"/>
<path d="M230.126 43.0851C231.863 48.9885 235.26 54.266 239.911 58.2866C240.263 58.6 240.717 58.7731 241.187 58.7731C241.658 58.7731 242.112 58.6 242.463 58.2866C242.631 58.1188 242.764 57.9196 242.855 57.7003C242.945 57.481 242.992 57.246 242.992 57.0086C242.992 56.7712 242.945 56.5361 242.855 56.3169C242.764 56.0976 242.631 55.8983 242.463 55.7306C238.258 52.1523 235.184 47.4241 233.618 42.1242C233.491 41.6604 233.185 41.2662 232.768 41.0283C232.35 40.7904 231.856 40.7284 231.393 40.8558C230.929 40.9832 230.536 41.2897 230.298 41.7078C230.061 42.1258 229.999 42.6213 230.126 43.0851Z" fill="#F9ECEA"/>
<path d="M237.071 88.9199L222.815 104.045L223.736 90.0346L232.582 89.6118L237.071 88.9199Z" fill="#000"/>
<path d="M164.315 124.281L161.13 226.789" stroke="#000" stroke-width="1.3837" stroke-miterlimit="10"/>
<path d="M167.558 19.8516L164.315 124.281" stroke="#000" stroke-width="1.3837" stroke-miterlimit="10"/>
<path d="M160.382 33.7277L148.87 33.5547L160.382 33.7277Z" stroke="#000" stroke-width="2.09477" stroke-linecap="round" stroke-linejoin="round"/>
<path d="M160.382 29.9604L148.87 29.8066L160.382 29.9604Z" stroke="#000" stroke-width="2.09477" stroke-linecap="round" stroke-linejoin="round"/>
<path d="M160.728 26.1362L149.216 25.9824L160.728 26.1362Z" stroke="#000" stroke-width="2.09477" stroke-linecap="round" stroke-linejoin="round"/>
<path d="M155.048 219.948C157.708 219.948 159.864 217.789 159.864 215.125C159.864 212.46 157.708 210.301 155.048 210.301C152.389 210.301 150.232 212.46 150.232 215.125C150.232 217.789 152.389 219.948 155.048 219.948Z" stroke="#000" stroke-width="1.3837" stroke-miterlimit="10"/>
<path d="M157.235 94.3594H148.026C147.528 94.3594 147.124 94.7638 147.124 95.2626V101.739C147.124 102.238 147.528 102.642 148.026 102.642H157.235C157.733 102.642 158.137 102.238 158.137 101.739V95.2626C158.137 94.7638 157.733 94.3594 157.235 94.3594Z" stroke="#000" stroke-width="1.3837" stroke-miterlimit="10"/>
<path d="M147.738 94.916L152.976 98.7981L158.138 95.2427" stroke="#000" stroke-width="1.3837" stroke-linecap="round" stroke-linejoin="round"/>
<path d="M148.025 102.623L151.249 97.7988" stroke="#000" stroke-width="1.3837" stroke-linecap="round" stroke-linejoin="round"/>
<path d="M154.607 98.0293L157.965 101.988" stroke="#000" stroke-width="1.3837" stroke-linecap="round" stroke-linejoin="round"/>
<path d="M153.897 54.5784C154.85 54.5784 155.624 53.804 155.624 52.8488C155.624 51.8935 154.85 51.1191 153.897 51.1191C152.943 51.1191 152.17 51.8935 152.17 52.8488C152.17 53.804 152.943 54.5784 153.897 54.5784Z" stroke="#000" stroke-width="1.3837" stroke-miterlimit="10"/>
<path d="M153.839 55.5199H154.702C155.783 55.5198 156.821 55.9445 157.592 56.7028C158.364 57.4612 158.807 58.4925 158.828 59.575V59.575H149.656C149.676 58.4824 150.128 57.4424 150.912 56.6825C151.696 55.9225 152.748 55.5045 153.839 55.5199V55.5199Z" stroke="#000" stroke-width="1.3837" stroke-linecap="round" stroke-linejoin="round"/>
<path d="M405.263 74.8918C408.018 74.8918 410.252 72.6547 410.252 69.8951C410.252 67.1355 408.018 64.8984 405.263 64.8984C402.508 64.8984 400.274 67.1355 400.274 69.8951C400.274 72.6547 402.508 74.8918 405.263 74.8918Z" fill="#F1DF6F"/>
<path d="M378.555 81.2909C381.28 89.8237 388.801 97.9337 397.742 99.7594C400.879 100.258 404.087 100.068 407.144 99.2021C410.03 98.7191 412.859 97.9399 415.586 96.8767C419.557 95.058 422.862 92.0443 425.043 88.2551C427.223 84.466 428.17 80.0901 427.75 75.7369C427.035 71.2365 426.003 66.7925 424.661 62.438L420.824 47.0636C420.363 45.1418 417.389 45.9681 417.869 47.8899C419.922 56.1153 422.013 64.3406 424.028 72.5851C424.917 75.7263 424.949 79.049 424.118 82.2064C423.288 85.3638 421.627 88.24 419.308 90.5348C415.144 94.5706 409.542 95.4546 404.093 96.5692C393.981 98.664 384.33 89.3433 381.433 80.3108C380.839 78.389 377.865 79.2346 378.479 81.1372L378.555 81.2909Z" fill="#000"/>
<path d="M379.169 81.3293H379.361L378.287 80.2531C378.287 80.5798 378.46 80.8873 378.556 81.214C378.598 81.4075 378.691 81.5864 378.824 81.7329C378.93 81.8999 379.075 82.0385 379.246 82.1365C379.421 82.2403 379.619 82.2996 379.822 82.3094C380.024 82.3576 380.234 82.3576 380.436 82.3094L380.8 82.1557C381.027 82.0158 381.217 81.825 381.357 81.5984L381.51 81.2332C381.587 80.9631 381.587 80.677 381.51 80.4068L381.28 79.6189V79.4652C381.254 79.3344 381.202 79.2103 381.127 79.1L380.858 78.7925L380.551 78.5427L380.167 78.389H380.014C379.813 78.3313 379.6 78.3313 379.4 78.389C379.195 78.3872 378.994 78.4475 378.824 78.5619C378.649 78.6549 378.503 78.7945 378.402 78.9655C378.269 79.112 378.176 79.2909 378.133 79.4844V79.888C378.125 80.1656 378.199 80.4395 378.344 80.6759L378.575 80.9834C378.758 81.1721 378.991 81.3053 379.246 81.3677L379.169 81.3293Z" fill="#000"/>
<path d="M412.342 61.9583L412.573 63.611C412.63 63.8028 412.728 63.9798 412.86 64.1299C412.962 64.2957 413.108 64.4291 413.283 64.5143C413.455 64.6263 413.653 64.6924 413.858 64.7064C414.06 64.7539 414.27 64.7539 414.472 64.7064C414.853 64.5846 415.179 64.333 415.393 63.9954L415.547 63.6302C415.606 63.358 415.606 63.0761 415.547 62.8039L415.297 61.1511C415.254 60.9576 415.162 60.7787 415.029 60.6322C414.92 60.4657 414.767 60.3326 414.587 60.2479C414.425 60.1303 414.231 60.0634 414.031 60.0557C413.829 60.0075 413.619 60.0075 413.417 60.0557C413.033 60.1713 412.705 60.4244 412.496 60.7667L412.342 61.1319C412.266 61.402 412.266 61.6881 412.342 61.9583Z" fill="#000"/>
<path d="M417.331 71.1052L417.082 71.2206L417.446 71.0668C417.189 71.1789 416.918 71.2564 416.64 71.2974H417.043C416.75 71.3359 416.454 71.3359 416.161 71.2974H416.564C416.293 71.2657 416.028 71.1945 415.777 71.086L416.142 71.2398L415.873 71.1052C415.508 70.9116 415.085 70.857 414.683 70.9515C414.308 71.0743 413.989 71.3262 413.782 71.6626C413.573 72.0226 413.511 72.4495 413.609 72.8541C413.731 73.2353 413.982 73.5617 414.319 73.7766C415.024 74.1453 415.807 74.3379 416.602 74.3379C417.397 74.3379 418.181 74.1453 418.885 73.7766C419.235 73.5718 419.49 73.2366 419.595 72.8441C419.699 72.4516 419.644 72.0338 419.442 71.6818C419.344 71.507 419.212 71.3539 419.054 71.2317C418.896 71.1095 418.714 71.0207 418.521 70.9707C418.119 70.8668 417.693 70.9218 417.331 71.1245V71.1052Z" fill="#000"/>
<path d="M418.828 43.374C418.941 43.2411 419.044 43.0998 419.136 42.9512" stroke="#000" stroke-width="0.614977" stroke-miterlimit="10"/>
<path d="M420.689 58.3258L426.772 64.3987V62.2078L423.222 66.3781C422.938 66.672 422.78 67.0648 422.78 67.4735C422.78 67.8823 422.938 68.2751 423.222 68.569C423.512 68.8519 423.901 69.0102 424.306 69.0102C424.711 69.0102 425.1 68.8519 425.39 68.569L428.94 64.3987C429.219 64.1025 429.375 63.7106 429.375 63.3032C429.375 62.8959 429.219 62.5039 428.94 62.2078L422.858 56.1541C422.567 55.8712 422.178 55.7129 421.774 55.7129C421.369 55.7129 420.98 55.8712 420.689 56.1541C420.402 56.4423 420.241 56.8328 420.241 57.2399C420.241 57.647 420.402 58.0375 420.689 58.3258Z" fill="#000"/>
<path d="M382.565 89.305V109.349C382.475 110.362 382.56 111.383 382.815 112.367C383.405 113.799 384.404 115.025 385.688 115.89C386.971 116.755 388.482 117.221 390.029 117.229C391.51 117.226 392.962 116.812 394.223 116.031C395.483 115.251 396.502 114.135 397.166 112.809C397.581 111.573 397.731 110.263 397.608 108.965V97.4535C397.608 97.0457 397.446 96.6547 397.158 96.3663C396.87 96.078 396.48 95.916 396.073 95.916C395.666 95.916 395.275 96.078 394.987 96.3663C394.699 96.6547 394.538 97.0457 394.538 97.4535V106.409C394.538 107.812 394.538 109.234 394.538 110.637C394.395 111.478 393.999 112.255 393.402 112.863C392.805 113.471 392.036 113.882 391.199 114.039C389.165 114.538 385.942 113.328 385.673 110.945C385.635 110.234 385.635 109.522 385.673 108.811V89.305C385.673 88.8973 385.512 88.5062 385.224 88.2179C384.936 87.9296 384.546 87.7676 384.138 87.7676C383.731 87.7676 383.341 87.9296 383.053 88.2179C382.765 88.5062 382.604 88.8973 382.604 89.305H382.565Z" fill="#000"/>
<path d="M382.565 88.7855V114.768C382.472 116.009 382.543 117.256 382.776 118.477C383.253 120.235 384.325 121.772 385.81 122.824C387.294 123.876 389.098 124.378 390.912 124.243C392.679 123.936 394.293 123.047 395.499 121.717C396.705 120.387 397.434 118.693 397.569 116.901C397.569 115.441 397.569 113.961 397.569 112.501V97.8948C397.569 97.4871 397.408 97.096 397.12 96.8077C396.832 96.5194 396.442 96.3574 396.035 96.3574C395.627 96.3574 395.237 96.5194 394.949 96.8077C394.661 97.096 394.5 97.4871 394.5 97.8948V115.595C394.596 116.455 394.483 117.327 394.168 118.133C393.854 118.94 393.349 119.658 392.696 120.226C392.062 120.721 391.305 121.032 390.507 121.124C389.709 121.216 388.901 121.086 388.171 120.749C387.442 120.411 386.819 119.879 386.372 119.211C385.925 118.542 385.67 117.763 385.635 116.959C385.635 115.998 385.635 115.037 385.635 114.038V88.7855C385.635 88.3777 385.474 87.9867 385.186 87.6984C384.898 87.41 384.507 87.248 384.1 87.248C383.693 87.248 383.303 87.41 383.015 87.6984C382.727 87.9867 382.565 88.3777 382.565 88.7855Z" fill="#000"/>
<path d="M416.525 37.3202C418.172 40.3827 418.842 43.8773 418.444 47.3328L419.518 46.2566C410.393 48.8797 400.882 49.8941 391.41 49.2546C389.491 49.0625 389.491 52.1373 391.41 52.3295C401.155 52.9795 410.939 51.926 420.324 49.2162C420.583 49.1492 420.819 49.0141 421.008 48.8248C421.197 48.6356 421.332 48.3991 421.399 48.14C421.933 43.8729 421.122 39.5452 419.077 35.7636C418.233 33.9763 415.585 35.533 416.429 37.3202H416.525Z" fill="#000"/>
<path d="M419.634 35.9956C412.842 30.4032 402.366 30.115 393.981 30.6531C384.541 31.268 374.027 33.3436 366.506 39.4932C356.912 47.411 352.672 59.6142 350.024 71.414C349.314 74.681 348.681 77.948 348.106 81.215C347.549 83.1474 347.24 85.1428 347.185 87.1533C347.319 88.8252 349.506 90.5164 350.6 91.6503C352.732 93.8506 354.98 95.9355 357.334 97.896C361.632 101.585 366.408 104.675 371.533 107.082C373.854 108.158 376.195 109.177 378.555 110.099C380.16 110.882 381.886 111.388 383.659 111.598C385.577 111.598 385.577 108.6 383.659 108.523C382.325 108.32 381.031 107.911 379.821 107.313C377.787 106.544 375.792 105.66 373.797 104.757C370.238 103.199 366.855 101.267 363.704 98.9914C359.184 95.7124 355.011 91.9774 351.252 87.8451C351.022 87.5953 350.619 86.9227 350.312 86.769L350.043 86.4422C350.184 87.2238 350.261 87.3775 350.274 86.9035C350.542 86.6344 350.446 85.4045 350.504 84.9817C350.907 82.2143 351.54 79.447 352.077 76.6988C354.322 65.5718 357.162 53.6375 365.086 45.0664C371.494 38.1096 380.55 35.2845 389.702 34.1123C394.889 33.4174 400.141 33.3657 405.34 33.9585C409.465 34.4582 414.185 35.4191 417.504 38.148C419.02 39.3972 421.207 37.2255 419.672 35.9764L419.634 35.9956Z" fill="#000"/>
<path d="M397.626 112.233L410.443 109.734C410.639 109.679 410.822 109.585 410.982 109.458C411.142 109.331 411.275 109.174 411.373 108.995C411.471 108.816 411.533 108.619 411.554 108.416C411.576 108.213 411.557 108.008 411.498 107.812C411.025 105.156 410.877 102.452 411.057 99.7601C411.057 99.3523 410.895 98.9613 410.607 98.673C410.319 98.3846 409.929 98.2227 409.522 98.2227C409.115 98.2227 408.724 98.3846 408.437 98.673C408.149 98.9613 407.987 99.3523 407.987 99.7601C407.807 102.731 407.994 105.713 408.543 108.639L409.618 106.717L396.82 109.215C396.614 109.257 396.418 109.34 396.246 109.461C396.073 109.581 395.927 109.735 395.816 109.915C395.705 110.094 395.633 110.294 395.603 110.503C395.573 110.711 395.586 110.924 395.641 111.127C395.696 111.331 395.793 111.52 395.925 111.685C396.056 111.849 396.22 111.985 396.406 112.083C396.593 112.181 396.797 112.24 397.007 112.256C397.217 112.272 397.427 112.244 397.626 112.175V112.233Z" fill="#000"/>
<path d="M395.804 51.0032C394.434 54.684 392.726 58.2291 390.7 61.5923C388.886 64.9606 386.311 67.8566 383.179 70.0483C381.509 71.086 383.044 73.7381 384.733 72.7004C388.23 70.3015 391.126 67.1245 393.194 63.418C395.424 59.7675 397.288 55.9051 398.758 51.8872C399.449 49.9654 396.475 49.2351 395.804 51.0801V51.0032Z" fill="#000"/>
<path d="M372.223 72.4309C372.072 73.8022 372.333 75.1874 372.972 76.4095C373.612 77.6316 374.6 78.6351 375.811 79.2917C377.086 79.9589 378.535 80.2189 379.962 80.0368C381.389 79.8547 382.726 79.2392 383.793 78.2732C384.606 77.5265 385.229 76.5963 385.61 75.5598C385.991 74.5233 386.12 73.4106 385.986 72.3143C385.851 71.2179 385.457 70.1695 384.837 69.2564C384.216 68.3432 383.387 67.5917 382.418 67.0644C381.449 66.537 380.368 66.249 379.265 66.2244C378.163 66.1998 377.07 66.4392 376.079 66.9227C375.087 67.4063 374.225 68.12 373.565 69.0046C372.904 69.8891 372.464 70.9188 372.281 72.0081C372.179 72.4054 372.234 72.8267 372.434 73.1846C372.634 73.5425 372.964 73.8094 373.355 73.9299C373.552 73.9855 373.757 74.0018 373.96 73.9778C374.163 73.9538 374.359 73.8901 374.537 73.7901C374.716 73.6902 374.872 73.556 374.999 73.3953C375.125 73.2346 375.219 73.0506 375.274 72.8537C375.274 72.6038 375.274 72.3732 375.427 72.1234C375.581 71.8736 375.523 71.8543 375.562 71.7006C375.562 71.7006 375.562 71.9504 375.562 71.7006C375.562 71.7006 375.773 71.2778 375.907 71.0664L376.003 70.9319C376.082 70.8146 376.172 70.7052 376.272 70.6052L376.79 70.1247L377.097 69.9518L377.404 69.7788C377.669 69.6666 377.946 69.5829 378.229 69.529H378.517C378.171 69.529 378.632 69.529 378.67 69.529C378.919 69.5098 379.169 69.5098 379.418 69.529C379.418 69.529 379.706 69.529 379.418 69.529H379.86H380.128H380.416L381.049 69.8749L381.337 70.0671C381.107 69.9133 381.337 70.0671 381.337 70.0671C381.494 70.2113 381.641 70.3653 381.778 70.5283C381.778 70.5283 382.085 70.8934 381.893 70.6436C381.983 70.7497 382.06 70.8657 382.124 70.9895C382.257 71.1902 382.373 71.4025 382.469 71.6237C382.335 71.3162 382.469 71.739 382.469 71.7775C382.48 71.8668 382.48 71.9572 382.469 72.0465C382.48 72.1872 382.48 72.3286 382.469 72.4693C382.469 72.4693 382.469 72.7576 382.469 72.4693C382.488 72.7573 382.488 73.0462 382.469 73.3341C382.469 73.3341 382.469 73.7954 382.469 73.584C382.469 73.3726 382.469 73.853 382.469 73.8338C382.416 74.0695 382.346 74.3007 382.258 74.5257C382.258 74.5257 382.354 74.295 382.258 74.5257L382.066 74.91L381.913 75.1406L381.759 75.3712C381.855 75.2559 381.855 75.2559 381.759 75.3712C381.608 75.5519 381.441 75.7191 381.26 75.8709L381.049 76.0439L380.915 76.14C380.736 76.2538 380.55 76.3565 380.358 76.4475C380.013 76.6012 380.358 76.4475 380.358 76.4475L379.956 76.582C379.73 76.6514 379.499 76.7028 379.265 76.7357H378.325C378.032 76.6793 377.743 76.6022 377.461 76.5051C377.02 76.3898 377.596 76.5051 377.461 76.5051L377.001 76.2745L376.771 76.1208L376.54 75.967C376.655 75.967 376.655 75.967 376.54 75.967C376.352 75.7974 376.172 75.6177 376.003 75.4289C375.773 75.1406 376.003 75.4289 376.003 75.4289L375.773 75.083L375.562 74.7178C375.562 74.7178 375.37 74.2758 375.562 74.5833C375.466 74.3143 375.389 74.0452 375.312 73.7569C375.303 73.6611 375.303 73.5645 375.312 73.4687C375.312 73.8146 375.312 73.2188 375.312 73.1612C375.293 72.8668 375.293 72.5715 375.312 72.2771C375.312 71.8694 375.151 71.4783 374.863 71.19C374.575 70.9017 374.184 70.7397 373.777 70.7397C373.37 70.7397 372.98 70.9017 372.692 71.19C372.404 71.4783 372.242 71.8694 372.242 72.2771L372.223 72.4309Z" fill="#000"/>
<path d="M382.737 104.966L397.665 97.9134L383.255 91.7637L382.737 104.966Z" fill="#000"/>
<path d="M378.516 76.4284C378.923 76.4284 379.314 76.2664 379.602 75.9781C379.89 75.6898 380.051 75.2987 380.051 74.891C380.051 74.4832 379.89 74.0922 379.602 73.8038C379.314 73.5155 378.923 73.3535 378.516 73.3535C378.109 73.3535 377.719 73.5155 377.431 73.8038C377.143 74.0922 376.981 74.4832 376.981 74.891C376.981 75.2987 377.143 75.6898 377.431 75.9781C377.719 76.2664 378.109 76.4284 378.516 76.4284Z" fill="#000"/>
<path d="M405.743 42.4708C405.896 42.7206 406.03 42.9897 406.165 43.2587L406.337 43.6239C406.337 43.7776 406.337 43.7968 406.337 43.6239C406.337 43.4701 406.337 43.7776 406.337 43.8545C406.529 44.3744 406.683 44.9075 406.798 45.4496C406.787 45.5903 406.787 45.7317 406.798 45.8724C406.798 45.9877 406.798 45.8724 406.798 45.7571C406.807 45.8337 406.807 45.9111 406.798 45.9877C406.817 46.2692 406.817 46.5517 406.798 46.8333C406.798 47.1023 406.798 47.3906 406.798 47.6597C406.807 47.8197 406.807 47.9801 406.798 48.1401C406.798 48.3067 406.798 48.3067 406.798 48.1401C406.807 48.2167 406.807 48.2941 406.798 48.3707C406.689 48.7657 406.74 49.1881 406.942 49.5449C407.143 49.9017 407.478 50.1637 407.872 50.2733C408.267 50.3829 408.688 50.3311 409.045 50.1292C409.401 49.9274 409.662 49.5921 409.772 49.1971C410.268 46.3767 409.737 43.4715 408.275 41.0102C408.061 40.6652 407.721 40.4166 407.328 40.3163C406.935 40.216 406.518 40.2718 406.165 40.4721C405.818 40.68 405.567 41.0167 405.466 41.4089C405.366 41.8011 405.424 42.2172 405.628 42.5669L405.743 42.4708Z" fill="#000"/>
<path d="M362.419 59.8625C360.597 66.0758 359.313 72.4349 358.582 78.8691C357.872 85.0958 357.258 91.726 358.812 97.8758C358.933 98.2548 359.196 98.5721 359.545 98.761C359.895 98.9499 360.304 98.9956 360.687 98.8886C361.069 98.7816 361.396 98.5302 361.597 98.1872C361.798 97.8442 361.859 97.4363 361.767 97.0494C360.308 91.284 360.98 84.7883 361.652 78.8691C362.408 72.7101 363.692 66.6277 365.489 60.6889C365.582 60.3019 365.521 59.8941 365.319 59.5511C365.118 59.2081 364.792 58.9566 364.409 58.8496C364.026 58.7426 363.617 58.7883 363.268 58.9772C362.918 59.1661 362.655 59.4834 362.534 59.8625H362.419Z" fill="#000"/>
<path d="M411.94 54.3287L410.309 54.5016C410.103 54.4957 409.898 54.5419 409.715 54.6362C409.521 54.6958 409.348 54.809 409.216 54.9629C409.068 55.089 408.961 55.2562 408.909 55.4433C408.808 55.6251 408.762 55.8317 408.774 56.0391V56.4426C408.832 56.7058 408.966 56.9462 409.158 57.1345L409.465 57.3651C409.705 57.5019 409.976 57.5747 410.252 57.5765L411.883 57.4036C412.083 57.4096 412.281 57.3633 412.458 57.269C412.652 57.2094 412.825 57.0962 412.957 56.9423C413.106 56.8133 413.218 56.6477 413.283 56.4619C413.375 56.2769 413.421 56.0726 413.418 55.8661V55.4433C413.341 55.1893 413.202 54.9583 413.015 54.7707L412.708 54.5401C412.479 54.3946 412.211 54.321 411.94 54.3287Z" fill="#000"/>
<path d="M396.438 115.613C401.178 115.847 405.904 116.322 410.597 117.035C427.865 119.438 445.479 123.531 459.063 134.332" stroke="#000" stroke-width="2.94036" stroke-linecap="round" stroke-linejoin="round"/>
<path d="M326.041 127.24C329.514 123.646 360.328 119.111 370.593 117.631C374.181 117.112 377.807 116.593 381.414 116.209" stroke="#000" stroke-width="2.94036" stroke-linecap="round" stroke-linejoin="round"/>
<path d="M376.886 201.286C376.771 208.378 376.464 215.45 376.349 222.541C376.349 223.097 376.569 223.63 376.961 224.023C377.353 224.415 377.885 224.636 378.44 224.636C378.995 224.636 379.527 224.415 379.919 224.023C380.311 223.63 380.531 223.097 380.531 222.541C380.646 215.45 380.953 208.378 381.069 201.286C381.069 200.731 380.848 200.198 380.456 199.805C380.064 199.412 379.532 199.191 378.977 199.191C378.423 199.191 377.891 199.412 377.498 199.805C377.106 200.198 376.886 200.731 376.886 201.286Z" fill="#000"/>
<path d="M393.022 202.747C392.926 209.704 392.599 216.642 392.484 223.579C392.484 224.135 392.705 224.668 393.097 225.061C393.489 225.454 394.021 225.674 394.576 225.674C395.13 225.674 395.662 225.454 396.055 225.061C396.447 224.668 396.667 224.135 396.667 223.579C396.782 216.642 397.089 209.704 397.204 202.747C397.204 202.192 396.984 201.659 396.592 201.266C396.2 200.873 395.668 200.652 395.113 200.652C394.558 200.652 394.026 200.873 393.634 201.266C393.242 201.659 393.022 202.192 393.022 202.747Z" fill="#000"/>
<path d="M364.951 181.8H364.203C364.567 181.8 364.203 181.8 364.049 181.8L363.512 181.665L363.109 181.511L362.725 181.3L362.284 181.031C362.15 181.031 361.881 180.704 362.15 181.031L361.632 180.57L361.286 180.185C361.593 180.493 361.286 180.185 361.19 180.051L360.864 179.513C360.864 179.513 360.576 178.859 360.749 179.301C360.612 178.972 360.503 178.631 360.423 178.283V177.918C360.423 178.168 360.423 178.187 360.423 177.918C360.423 177.649 360.423 177.533 360.423 177.36C360.423 177.187 360.423 176.976 360.423 176.803C360.423 176.553 360.423 176.63 360.423 176.803C360.423 176.803 360.423 176.63 360.423 176.534C360.509 176.154 360.624 175.781 360.768 175.419C360.596 175.861 360.768 175.419 360.768 175.285C360.878 175.08 361 174.881 361.133 174.689C361.133 174.689 361.517 174.209 361.229 174.555L361.574 174.151C361.73 174.027 361.878 173.892 362.015 173.747L362.303 173.536C362.593 173.345 362.894 173.171 363.205 173.017C362.783 173.229 363.435 173.017 363.531 173.017L364.068 172.863C364.068 172.863 364.702 172.863 364.222 172.863H364.97C365.525 172.863 366.057 172.643 366.449 172.25C366.841 171.857 367.062 171.324 367.062 170.769C367.062 170.213 366.841 169.68 366.449 169.287C366.057 168.895 365.525 168.674 364.97 168.674C363.174 168.694 361.424 169.254 359.95 170.282C358.475 171.31 357.343 172.759 356.701 174.439C356.102 176.108 356.022 177.919 356.471 179.634C356.919 181.349 357.876 182.888 359.214 184.048C360.82 185.424 362.857 186.192 364.97 186.22C365.525 186.22 366.057 185.999 366.449 185.606C366.841 185.214 367.062 184.681 367.062 184.125C367.062 183.57 366.841 183.037 366.449 182.644C366.057 182.251 365.525 182.03 364.97 182.03L364.951 181.8Z" fill="#000"/>
<path d="M410.98 171.037C411.408 170.999 411.838 170.999 412.266 171.037C412.842 171.037 411.882 170.941 412.419 171.037C412.628 171.07 412.834 171.122 413.033 171.191C413.033 171.191 413.724 171.441 413.264 171.191C413.429 171.256 413.589 171.333 413.743 171.422L414.204 171.691L414.492 171.883C414.281 171.729 414.3 171.729 414.492 171.883C414.703 172.037 414.99 172.363 415.24 172.632C415.393 172.805 415.489 172.901 415.24 172.632C415.296 172.699 415.347 172.77 415.393 172.844L415.72 173.363L415.95 173.843C415.758 173.42 415.95 173.843 415.95 174.016C415.95 174.189 416.084 174.477 416.142 174.708C416.199 174.938 416.142 175.361 416.142 174.9C416.17 175.297 416.17 175.695 416.142 176.091C416.142 176.63 416.142 175.938 416.142 176.341L416.027 176.86L415.854 177.36C416.007 176.899 415.854 177.571 415.7 177.648L415.451 178.109L415.355 178.244C415.105 178.561 414.829 178.857 414.53 179.128C414.127 179.512 414.856 178.936 414.396 179.243L413.954 179.512L413.321 179.858C413.667 179.685 413.321 179.858 413.149 179.858L412.631 180.012C412.535 180.012 411.786 180.147 412.285 180.012C411.735 180.027 411.212 180.252 410.822 180.642C410.433 181.031 410.208 181.556 410.194 182.107C410.194 183.125 411.115 184.336 412.285 184.202C414.076 184.073 415.787 183.41 417.196 182.296C418.606 181.182 419.649 179.67 420.19 177.956C420.664 176.185 420.579 174.311 419.947 172.59C419.315 170.87 418.167 169.387 416.66 168.347C415.024 167.208 413.042 166.677 411.057 166.848C410.506 166.857 409.979 167.081 409.589 167.472C409.199 167.863 408.976 168.39 408.966 168.942C408.97 169.483 409.182 170.002 409.556 170.392C409.931 170.782 410.441 171.013 410.98 171.037Z" fill="#000"/>
<path d="M365.028 183.375C365.085 188.405 366.911 193.254 370.186 197.068C373.46 200.883 377.973 203.417 382.93 204.227C385.945 204.531 388.978 204.615 392.005 204.477C394.967 204.627 397.937 204.557 400.888 204.265C409.024 203.074 415.969 195.348 415.183 186.969C414.645 181.069 413.744 175.188 413.034 169.308L410.961 152.415C410.947 151.864 410.722 151.34 410.333 150.95C409.944 150.56 409.42 150.335 408.87 150.32L372.415 152.53L367.177 152.838C366.627 152.852 366.104 153.078 365.715 153.468C365.325 153.857 365.1 154.382 365.086 154.933V183.375C365.086 183.931 365.306 184.464 365.698 184.857C366.091 185.249 366.623 185.47 367.177 185.47C367.732 185.47 368.264 185.249 368.656 184.857C369.048 184.464 369.269 183.931 369.269 183.375V154.856L367.177 156.951L403.632 154.74L408.87 154.433L406.76 152.338L410.597 183.318C410.77 184.701 411.038 186.085 411.096 187.469C411.129 189.535 410.653 191.577 409.709 193.414C408.765 195.251 407.383 196.827 405.685 198C400.677 201.498 393.252 200.287 387.458 200.287C383.527 200.464 379.642 199.38 376.368 197.193C374.174 195.617 372.384 193.543 371.144 191.142C369.903 188.74 369.248 186.079 369.23 183.375C369.23 182.817 369.009 182.282 368.615 181.887C368.221 181.493 367.686 181.271 367.129 181.271C366.572 181.271 366.038 181.493 365.644 181.887C365.25 182.282 365.028 182.817 365.028 183.375Z" fill="#000"/>
<path d="M401.003 169.482V170.885C400.994 171.071 401.033 171.257 401.119 171.423C401.183 171.588 401.281 171.739 401.407 171.864C401.532 171.99 401.682 172.088 401.848 172.153C402.01 172.248 402.198 172.288 402.385 172.268H402.769C402.999 172.197 403.209 172.071 403.383 171.903C403.636 171.639 403.78 171.289 403.785 170.923V169.52C403.786 169.334 403.747 169.151 403.67 168.982C403.617 168.811 403.517 168.658 403.383 168.54C403.254 168.409 403.096 168.31 402.922 168.252C402.76 168.156 402.572 168.115 402.385 168.136H402.02C401.79 168.208 401.579 168.333 401.406 168.501C401.151 168.764 401.007 169.115 401.003 169.482Z" fill="#000"/>
<path d="M384.024 170.903V172.306C384.02 172.494 384.066 172.68 384.158 172.844C384.217 173.013 384.315 173.164 384.446 173.286C384.564 173.421 384.716 173.52 384.887 173.574C385.049 173.669 385.238 173.709 385.424 173.69H385.789C386.021 173.622 386.233 173.496 386.403 173.324C386.662 173.063 386.813 172.713 386.825 172.344V170.941C386.829 170.753 386.782 170.567 386.691 170.403C386.626 170.238 386.528 170.087 386.402 169.962C386.277 169.836 386.127 169.738 385.962 169.673C385.799 169.578 385.611 169.538 385.424 169.558H385.06C384.767 169.643 384.509 169.819 384.323 170.061C384.137 170.303 384.032 170.598 384.024 170.903Z" fill="#000"/>
<path d="M360.404 165.06C360.839 167.746 362.186 170.199 364.216 172.006C366.247 173.812 368.838 174.862 371.552 174.977C374.661 175.086 377.687 173.959 379.969 171.842C382.252 169.725 383.606 166.79 383.735 163.677V163.119C383.789 162.12 383.705 161.117 383.486 160.141" fill="#000"/>
<path d="M396.725 157.471C397.159 160.156 398.506 162.609 400.537 164.416C402.568 166.222 405.158 167.272 407.872 167.387C410.996 167.517 414.044 166.4 416.346 164.282C418.648 162.163 420.017 159.216 420.152 156.087V155.549C420.186 154.543 420.103 153.537 419.902 152.551" fill="#000"/>
<path d="M363.072 157.701C361.409 157.752 359.816 158.377 358.561 159.47C357.306 160.562 356.466 162.056 356.183 163.697C355.861 165.586 356.3 167.525 357.405 169.089C358.509 170.653 360.189 171.714 362.074 172.038H362.4C363.037 172.122 363.682 172.122 364.319 172.038" fill="#000"/>
<path d="M409.005 148.958C407.114 143.658 403.525 139.134 398.798 136.092C394.07 133.05 388.47 131.661 382.872 132.142C379.555 132.386 376.318 133.281 373.347 134.777C370.375 136.274 367.727 138.342 365.553 140.864C363.38 143.385 361.723 146.311 360.678 149.474C359.634 152.637 359.221 155.975 359.464 159.297L359.56 160.431C359.697 162.13 360.005 163.811 360.481 165.447" fill="#F1DF6F"/>
<path d="M378.344 177.285C378.685 177.244 378.999 177.08 379.227 176.824C379.455 176.567 379.581 176.235 379.581 175.891C379.581 175.548 379.455 175.216 379.227 174.959C378.999 174.702 378.685 174.538 378.344 174.498C378.004 174.538 377.689 174.702 377.461 174.959C377.233 175.216 377.107 175.548 377.107 175.891C377.107 176.235 377.233 176.567 377.461 176.824C377.689 177.08 378.004 177.244 378.344 177.285Z" fill="#000"/>
<path d="M383.505 179.032C383.877 179.032 384.233 178.885 384.496 178.622C384.758 178.358 384.906 178.002 384.906 177.629C384.906 177.257 384.758 176.901 384.496 176.637C384.233 176.374 383.877 176.227 383.505 176.227C383.134 176.227 382.777 176.374 382.515 176.637C382.252 176.901 382.104 177.257 382.104 177.629C382.104 178.002 382.252 178.358 382.515 178.622C382.777 178.885 383.134 179.032 383.505 179.032Z" fill="#000"/>
<path d="M379.399 182.722C379.74 182.682 380.054 182.518 380.282 182.261C380.51 182.004 380.636 181.673 380.636 181.329C380.636 180.985 380.51 180.653 380.282 180.397C380.054 180.14 379.74 179.976 379.399 179.936C379.058 179.976 378.744 180.14 378.516 180.397C378.288 180.653 378.162 180.985 378.162 181.329C378.162 181.673 378.288 182.004 378.516 182.261C378.744 182.518 379.058 182.682 379.399 182.722Z" fill="#000"/>
<path d="M406.433 174.074C406.774 174.034 407.088 173.87 407.316 173.613C407.544 173.356 407.67 173.024 407.67 172.68C407.67 172.337 407.544 172.005 407.316 171.748C407.088 171.491 406.774 171.327 406.433 171.287C406.093 171.327 405.778 171.491 405.55 171.748C405.322 172.005 405.196 172.337 405.196 172.68C405.196 173.024 405.322 173.356 405.55 173.613C405.778 173.87 406.093 174.034 406.433 174.074Z" fill="#000"/>
<path d="M411.594 175.824C411.935 175.784 412.249 175.62 412.477 175.363C412.705 175.106 412.831 174.774 412.831 174.43C412.831 174.087 412.705 173.755 412.477 173.498C412.249 173.241 411.935 173.077 411.594 173.037C411.254 173.077 410.939 173.241 410.711 173.498C410.483 173.755 410.357 174.087 410.357 174.43C410.357 174.774 410.483 175.106 410.711 175.363C410.939 175.62 411.254 175.784 411.594 175.824Z" fill="#000"/>
<path d="M407.489 179.513C407.83 179.473 408.144 179.309 408.372 179.052C408.6 178.795 408.726 178.464 408.726 178.12C408.726 177.776 408.6 177.444 408.372 177.188C408.144 176.931 407.83 176.767 407.489 176.727C407.148 176.767 406.834 176.931 406.606 177.188C406.378 177.444 406.252 177.776 406.252 178.12C406.252 178.464 406.378 178.795 406.606 179.052C406.834 179.309 407.148 179.473 407.489 179.513Z" fill="#000"/>
<path d="M380.493 203.996L393.866 220.178L394.423 204.419L380.493 203.996Z" fill="#000"/>
<path d="M396.149 178.955L395.958 179.109L396.245 178.897C396.038 179.057 395.812 179.192 395.574 179.301L395.9 179.166C395.733 179.235 395.559 179.287 395.382 179.32H395.746C395.562 179.339 395.375 179.339 395.19 179.32H395.574C395.29 179.282 395.012 179.204 394.749 179.09L395.075 179.224L394.423 178.917C394.265 178.82 394.089 178.757 393.906 178.73C393.723 178.703 393.537 178.713 393.358 178.76C393.179 178.807 393.011 178.889 392.864 179.001C392.718 179.114 392.595 179.255 392.504 179.416C392.32 179.738 392.27 180.12 392.363 180.479C392.456 180.838 392.686 181.146 393.003 181.338C393.761 181.791 394.616 182.054 395.497 182.107C396.48 182.053 397.412 181.651 398.126 180.973C398.318 180.776 398.448 180.526 398.499 180.255C398.551 179.984 398.522 179.704 398.415 179.45C398.309 179.196 398.13 178.979 397.901 178.826C397.672 178.673 397.403 178.591 397.128 178.59C396.764 178.604 396.418 178.747 396.149 178.993V178.955Z" fill="#000"/>
<path d="M402.423 144.653C401.213 142.415 399.431 140.539 397.261 139.215C395.09 137.892 392.608 137.168 390.067 137.119C389.726 137.159 389.412 137.323 389.184 137.58C388.956 137.837 388.83 138.169 388.83 138.512C388.83 138.856 388.956 139.188 389.184 139.445C389.412 139.702 389.726 139.866 390.067 139.906C392.121 139.949 394.125 140.543 395.873 141.624C397.621 142.705 399.048 144.236 400.006 146.056C400.194 146.377 400.502 146.61 400.862 146.703C401.222 146.797 401.604 146.744 401.924 146.555C402.245 146.367 402.478 146.058 402.571 145.698C402.665 145.337 402.612 144.955 402.423 144.633V144.653Z" fill="#F9ECEA"/>
<path d="M331.087 240.376C331.912 237.897 332.795 235.418 333.696 232.958C334.135 231.406 334.93 229.978 336.018 228.787C337.523 227.628 339.313 226.898 341.198 226.673C352.53 224.385 363.975 222.698 375.485 221.619" stroke="#000" stroke-width="2.94036" stroke-linecap="round" stroke-linejoin="round"/>
<path d="M364.319 166.463L417.853 160.117C421.709 159.66 424.484 156.328 424.053 152.676C423.621 149.024 420.146 146.434 416.29 146.891L362.756 153.237C358.901 153.694 356.125 157.026 356.557 160.678C356.988 164.33 360.464 166.92 364.319 166.463Z" fill="#F1DF6F"/>
<path d="M395.708 221.793L405.052 222.197C418.483 222.792 432.566 223.503 444.519 229.884C445.393 230.267 446.157 230.861 446.745 231.613C447.292 232.606 447.557 233.729 447.512 234.861L447.973 244.47" stroke="#000" stroke-width="2.94036" stroke-linecap="round" stroke-linejoin="round"/>
<path d="M374.948 224.848C378.261 227.579 382.23 229.395 386.46 230.114C388.663 230.508 390.933 230.241 392.984 229.345C394.768 228.519 396.188 227.059 397.895 226.117C398.35 225.825 398.674 225.368 398.8 224.842C398.926 224.317 398.844 223.763 398.571 223.296C398.299 222.829 397.856 222.486 397.337 222.339C396.818 222.191 396.262 222.25 395.785 222.504C394.346 223.292 393.137 224.426 391.737 225.271C390.364 226.052 388.759 226.318 387.208 226.021C383.822 225.464 380.637 224.04 377.96 221.889C377.559 221.515 377.031 221.307 376.483 221.307C375.935 221.307 375.407 221.515 375.006 221.889C374.614 222.282 374.395 222.814 374.395 223.369C374.395 223.924 374.614 224.456 375.006 224.848H374.948Z" fill="#000"/>
<path d="M152.573 72.6235C151.653 71.8823 150.983 70.876 150.654 69.7408C150.467 69.1777 150.42 68.5771 150.52 67.9919C150.61 67.4022 150.927 66.8712 151.402 66.5121C151.55 66.4138 151.724 66.3613 151.901 66.3613C152.079 66.3613 152.252 66.4138 152.4 66.5121C152.558 66.68 152.653 66.8972 152.669 67.1271C152.784 67.6268 152.803 68.2994 152.343 68.53C151.882 68.7606 151.844 68.6453 151.767 68.8375C151.73 68.9053 151.711 68.9813 151.711 69.0585C151.711 69.1357 151.73 69.2117 151.767 69.2795C152.239 70.0859 152.82 70.8231 153.494 71.4704C153.538 71.5423 153.606 71.5967 153.686 71.6241C153.858 71.6241 153.993 71.4512 154.146 71.3358C154.256 71.2698 154.382 71.2349 154.511 71.2349C154.639 71.2349 154.765 71.2698 154.875 71.3358C155.107 71.4582 155.315 71.6209 155.489 71.8163C156.257 72.6042 155.815 72.9886 154.856 73.2577C154.454 73.367 154.029 73.3659 153.628 73.2543C153.226 73.1427 152.861 72.9248 152.573 72.6235V72.6235Z" stroke="#000" stroke-width="0.999338" stroke-linecap="round" stroke-linejoin="round"/>
<path d="M149.1 109.753H147.565V112.77H149.273L151.767 115.365L151.94 107.773L149.1 109.753Z" stroke="#000" stroke-width="1.3837" stroke-linecap="round" stroke-linejoin="round"/>
<path d="M153.379 110.328C153.598 110.485 153.775 110.693 153.896 110.934C154.016 111.175 154.076 111.442 154.07 111.712C154.054 111.98 153.972 112.239 153.832 112.467C153.691 112.696 153.496 112.885 153.264 113.019" stroke="#000" stroke-width="1.3837" stroke-linecap="round" stroke-linejoin="round"/>
<path d="M154.185 108.811C154.543 108.843 154.874 109.015 155.106 109.291C155.421 109.616 155.662 110.007 155.811 110.435C155.96 110.863 156.014 111.319 155.969 111.77C155.91 112.221 155.754 112.654 155.512 113.038C155.271 113.423 154.948 113.751 154.568 113.999" stroke="#000" stroke-width="1.3837" stroke-linecap="round" stroke-linejoin="round"/>
<path d="M155.931 107.465C156.641 107.953 157.199 108.632 157.538 109.425C157.878 110.218 157.986 111.091 157.85 111.943C157.56 113.42 156.75 114.743 155.566 115.671" stroke="#000" stroke-width="1.3837" stroke-linecap="round" stroke-linejoin="round"/>
<path d="M151.825 88.4019H158.099C158.297 88.4044 158.494 88.3675 158.678 88.2933C158.861 88.2192 159.029 88.1091 159.17 87.9697C159.311 87.8302 159.423 87.6641 159.499 87.481C159.575 87.2979 159.615 87.1014 159.615 86.9029V84.0202C159.615 83.6175 159.455 83.2314 159.171 82.9466C158.886 82.6619 158.501 82.502 158.099 82.502H151.825C151.423 82.502 151.037 82.6619 150.753 82.9466C150.469 83.2314 150.309 83.6175 150.309 84.0202V86.8644C150.304 87.0661 150.339 87.2668 150.414 87.4544C150.488 87.642 150.599 87.8127 150.74 87.9563C150.882 88.0998 151.051 88.2133 151.237 88.2899C151.424 88.3664 151.623 88.4045 151.825 88.4019V88.4019Z" stroke="#000" stroke-width="1.3837" stroke-linecap="round" stroke-linejoin="round"/>
<path d="M157.639 90.4388L156.334 88.3633H158.099L157.639 90.4388Z" stroke="#000" stroke-width="1.3837" stroke-linecap="round" stroke-linejoin="round"/>
<path d="M150.309 85.6916H148.026C147.629 85.6916 147.248 85.5336 146.968 85.2525C146.687 84.9714 146.529 84.5901 146.529 84.1926V81.3483C146.527 81.1498 146.564 80.9528 146.638 80.7688C146.712 80.5847 146.822 80.4171 146.961 80.2759C147.1 80.1347 147.266 80.0225 147.449 79.946C147.632 79.8695 147.828 79.8301 148.026 79.8301H154.319C154.517 79.8301 154.714 79.8695 154.896 79.946C155.079 80.0225 155.245 80.1347 155.384 80.2759C155.524 80.4171 155.633 80.5847 155.707 80.7688C155.782 80.9528 155.818 81.1498 155.816 81.3483V82.3284" stroke="#000" stroke-width="1.3837" stroke-linecap="round" stroke-linejoin="round"/>
<path d="M149.791 85.6914H148.025L148.505 87.767L149.791 85.6914Z" stroke="#000" stroke-width="1.3837" stroke-linecap="round" stroke-linejoin="round"/>
<path d="M157.024 64.3223H148.678V75.4495H157.024V64.3223Z" stroke="#000" stroke-width="1.3837" stroke-linecap="round" stroke-linejoin="round"/>
<path d="M158.904 65.7441H157.062V68.2041H158.904V65.7441Z" stroke="#000" stroke-width="1.3837" stroke-linecap="round" stroke-linejoin="round"/>
<path d="M158.904 70.0488H157.062V72.5087H158.904V70.0488Z" stroke="#000" stroke-width="1.3837" stroke-linecap="round" stroke-linejoin="round"/>
<path d="M154.837 215.893C155.378 215.414 155.798 214.815 156.065 214.144C156.199 213.811 156.221 213.443 156.127 213.096C156.034 212.75 155.83 212.443 155.547 212.222C154.952 211.819 153.935 212.222 153.974 212.953" stroke="#000" stroke-width="1.3837" stroke-linecap="round" stroke-linejoin="round"/>
<path d="M154.895 218.217C155.16 218.217 155.374 218.002 155.374 217.736C155.374 217.471 155.16 217.256 154.895 217.256C154.63 217.256 154.415 217.471 154.415 217.736C154.415 218.002 154.63 218.217 154.895 218.217Z" fill="#000"/>
<path d="M142.961 216.623C143.862 216.623 144.592 215.891 144.592 214.989C144.592 214.087 143.862 213.355 142.961 213.355C142.06 213.355 141.33 214.087 141.33 214.989C141.33 215.891 142.06 216.623 142.961 216.623Z" stroke="#000" stroke-width="0.98012" stroke-linecap="round" stroke-linejoin="round"/>
<path d="M141.963 211.973L142.423 210.416H143.862L144.208 211.742L145.685 211.338L146.836 212.434L145.8 213.856L147.412 214.375L147.239 215.989L146.03 216.105L146.663 217.661L145.397 218.814L144.15 217.892L143.805 219.564L142.135 219.506L141.732 217.777L140.466 218.584L139.372 217.373L140.121 216.508L138.739 215.874L138.854 213.971L140.293 213.683L139.545 212.146L140.466 211.108L141.848 211.857" stroke="#000" stroke-width="0.98012" stroke-linecap="round" stroke-linejoin="round"/>
<path d="M149.656 277.85L436.153 294.396" stroke="#000" stroke-width="3.92048" stroke-linecap="round" stroke-linejoin="round"/>
<path d="M170.781 251.176L424.219 261.284" stroke="#000" stroke-width="3.92048" stroke-linecap="round" stroke-linejoin="round"/>
<path d="M212.033 262.727L324.986 268.934" stroke="#000" stroke-width="1.3837" stroke-linecap="round" stroke-linejoin="round"/>
<path d="M209.52 271.988L322.472 278.196" stroke="#000" stroke-width="1.3837" stroke-linecap="round" stroke-linejoin="round"/>
<path d="M395.65 171.556C395.981 172.7 396.378 173.823 396.84 174.919L397.761 172.652L396.206 173.267C395.825 173.387 395.499 173.639 395.285 173.978C395.082 174.333 395.027 174.754 395.132 175.15C395.254 175.531 395.505 175.858 395.842 176.072C396.019 176.178 396.216 176.246 396.421 176.272C396.625 176.299 396.833 176.283 397.031 176.226L398.566 175.611C398.829 175.553 399.069 175.42 399.257 175.227C399.399 175.088 399.504 174.916 399.564 174.727C399.658 174.543 399.704 174.338 399.698 174.131C399.694 173.861 399.622 173.597 399.487 173.363L399.641 173.728C399.245 172.775 398.905 171.8 398.624 170.807C398.573 170.607 398.483 170.42 398.357 170.256C398.232 170.093 398.075 169.956 397.895 169.856C397.716 169.755 397.518 169.692 397.313 169.67C397.109 169.649 396.902 169.669 396.705 169.73C396.509 169.786 396.325 169.88 396.165 170.006C396.004 170.133 395.87 170.29 395.77 170.468C395.671 170.647 395.607 170.843 395.583 171.046C395.559 171.249 395.575 171.455 395.631 171.652L395.65 171.556Z" fill="#000"/>
<path d="M223.545 209.281C230.446 209.293 237.336 209.845 244.152 210.934C245.691 211.077 247.163 211.635 248.411 212.548C249.612 213.86 250.4 215.498 250.675 217.257L253.956 230.114" stroke="#000" stroke-width="3.19019" stroke-miterlimit="10" stroke-linecap="round"/>
<path d="M169.457 225.732C174.029 218.836 180.941 213.831 188.912 211.645C195.904 209.574 203.169 208.576 210.459 208.686" stroke="#000" stroke-width="3.19019" stroke-miterlimit="10" stroke-linecap="round"/>
<path d="M229.474 178.264C231.382 178.264 232.928 176.715 232.928 174.805C232.928 172.894 231.382 171.346 229.474 171.346C227.567 171.346 226.021 172.894 226.021 174.805C226.021 176.715 227.567 178.264 229.474 178.264Z" fill="#F1DF6F"/>
<path d="M206.392 170.539C204.841 170.804 203.401 171.518 202.252 172.594C201.103 173.67 200.294 175.061 199.926 176.593C199.561 178.209 199.697 179.899 200.313 181.436C200.93 182.974 202 184.288 203.379 185.202C204.886 186.157 206.672 186.57 208.445 186.375C208.954 186.375 209.442 186.172 209.801 185.812C210.161 185.451 210.363 184.963 210.363 184.453C210.363 183.511 209.519 182.416 208.445 182.531C208.055 182.56 207.664 182.56 207.274 182.531C207.121 182.531 206.795 182.531 207.14 182.531L206.507 182.397L206.046 182.243C205.567 182.07 206.353 182.416 205.912 182.243C205.588 182.069 205.274 181.877 204.972 181.666C205.317 181.916 204.972 181.666 204.857 181.551C204.742 181.436 204.607 181.301 204.473 181.167C204.339 181.032 204.089 180.648 204.32 180.994L204.051 180.59C204.051 180.417 203.878 180.244 203.782 180.09L203.667 179.783C203.611 179.626 203.566 179.466 203.533 179.302C203.533 179.302 203.399 178.668 203.533 178.899C203.667 179.13 203.533 178.534 203.533 178.476C203.523 178.31 203.523 178.143 203.533 177.976C203.533 177.823 203.533 177.496 203.533 177.823C203.573 177.615 203.624 177.41 203.686 177.208C203.686 177.054 203.686 176.9 203.821 176.746C203.955 176.593 203.686 176.958 203.821 176.612C203.955 176.266 204.185 175.959 204.396 175.67C204.147 175.997 204.396 175.67 204.511 175.555C204.649 175.398 204.796 175.251 204.953 175.113C204.953 175.113 205.413 174.786 205.068 175.113L205.471 174.844L205.97 174.575C206.066 174.575 206.104 174.575 205.97 174.575H206.277C206.644 174.447 207.023 174.357 207.409 174.306C207.896 174.171 208.31 173.849 208.561 173.41C208.813 172.971 208.881 172.45 208.752 171.961C208.617 171.473 208.296 171.059 207.857 170.807C207.419 170.555 206.899 170.486 206.411 170.616L206.392 170.539Z" fill="#000"/>
<path d="M211.151 196.193L210.882 212.836L211.151 196.193Z" fill="#F2E2E2"/>
<path d="M209.251 196.193L208.982 212.836C208.982 213.346 209.185 213.835 209.544 214.195C209.904 214.555 210.392 214.758 210.901 214.758C211.41 214.758 211.898 214.555 212.258 214.195C212.618 213.835 212.82 213.346 212.82 212.836L213.088 196.193C213.088 195.684 212.886 195.195 212.526 194.834C212.167 194.474 211.679 194.271 211.17 194.271C210.661 194.271 210.173 194.474 209.813 194.834C209.453 195.195 209.251 195.684 209.251 196.193Z" fill="#000"/>
<path d="M223.046 197.27L222.72 217.929L223.046 197.27Z" fill="#F2E2E2"/>
<path d="M221.146 197.269L220.82 217.929C220.82 218.439 221.022 218.927 221.382 219.288C221.742 219.648 222.23 219.851 222.739 219.851C223.248 219.851 223.736 219.648 224.096 219.288C224.456 218.927 224.658 218.439 224.658 217.929L224.984 197.269C224.984 196.76 224.782 196.271 224.422 195.911C224.062 195.55 223.574 195.348 223.065 195.348C222.556 195.348 222.068 195.55 221.708 195.911C221.349 196.271 221.146 196.76 221.146 197.269Z" fill="#000"/>
<path d="M205.912 173.748L208.944 194.888L209.366 197.886C209.548 198.314 209.88 198.661 210.299 198.862C210.717 199.064 211.195 199.106 211.643 198.982C212.09 198.857 212.478 198.574 212.733 198.186C212.988 197.797 213.094 197.328 213.03 196.867L209.999 175.727L209.577 172.729C209.438 172.245 209.115 171.835 208.677 171.587C208.239 171.339 207.722 171.273 207.236 171.403C206.753 171.542 206.343 171.866 206.095 172.304C205.848 172.743 205.782 173.261 205.912 173.748Z" fill="#000"/>
<path d="M220.935 198.827L232.448 197.924C237.225 197.54 241.715 197.213 245.245 193.446C246.925 191.576 248.146 189.34 248.812 186.915C249.479 184.489 249.571 181.942 249.082 179.475L246.934 166.426L245.015 155.298C244.612 152.877 240.928 153.895 241.35 156.298L245.188 177.879C245.84 181.723 246.32 184.971 244.305 188.565C243.556 189.975 242.48 191.186 241.168 192.096C239.857 193.005 238.347 193.587 236.765 193.792C235.633 193.927 234.462 193.965 233.33 194.061L221.051 195.003C218.614 195.195 218.595 199.019 221.051 198.846L220.935 198.827Z" fill="#000"/>
<path d="M236.88 167.387L237.226 168.598C237.271 168.759 237.349 168.91 237.456 169.04C237.548 169.177 237.674 169.289 237.82 169.366C237.959 169.454 238.117 169.507 238.281 169.52C238.451 169.558 238.628 169.558 238.799 169.52L239.106 169.386C239.29 169.272 239.442 169.113 239.547 168.924L239.681 168.617C239.739 168.396 239.739 168.165 239.681 167.944L239.336 166.734C239.299 166.569 239.219 166.417 239.106 166.292C239.013 166.154 238.888 166.042 238.741 165.965C238.604 165.874 238.445 165.821 238.281 165.811C238.111 165.763 237.932 165.763 237.763 165.811L237.475 165.926C237.286 166.039 237.127 166.198 237.015 166.388L236.88 166.695C236.822 166.916 236.822 167.147 236.88 167.368V167.387Z" fill="#000"/>
<path d="M208.253 213.183C209.867 215.349 211.92 217.15 214.277 218.468C216.852 220.111 219.923 220.791 222.95 220.39C223.595 220.21 224.143 219.782 224.474 219.198C224.805 218.615 224.892 217.924 224.715 217.276C224.527 216.635 224.098 216.09 223.519 215.757C222.94 215.424 222.255 215.328 221.607 215.489C221.3 215.489 221.472 215.604 221.607 215.489C221.461 215.518 221.311 215.518 221.165 215.489H220.724C220.724 215.489 221.223 215.489 220.724 215.489C220.204 215.391 219.691 215.256 219.189 215.086L218.402 214.816L218.057 214.701C217.693 214.547 218.057 214.701 218.057 214.701C218.057 214.701 217.481 214.432 217.386 214.374L216.656 213.99C216.221 213.75 215.798 213.487 215.39 213.202L215.083 212.991H214.968C215.275 213.202 214.853 212.895 214.795 212.837L214.508 212.606C214.143 212.28 213.778 211.953 213.433 211.588C213.088 211.223 213.049 211.184 212.877 210.973C212.704 210.761 212.224 210.185 212.627 210.685C212.269 210.137 211.734 209.73 211.111 209.532C210.624 209.392 210.107 209.402 209.625 209.56C209.144 209.718 208.721 210.017 208.411 210.419C208.101 210.82 207.918 211.305 207.887 211.812C207.855 212.318 207.976 212.823 208.233 213.26L208.253 213.183Z" fill="#000"/>
<path d="M239.182 178.724C239.605 179.083 240.077 179.381 240.583 179.608C240.883 179.767 241.229 179.815 241.561 179.743C241.722 179.71 241.869 179.629 241.983 179.512C242.125 179.427 242.244 179.309 242.329 179.166L242.444 178.859C242.501 178.638 242.501 178.407 242.444 178.186L242.329 177.879C242.216 177.689 242.058 177.53 241.868 177.417C241.513 177.267 241.178 177.074 240.87 176.841L241.12 177.033L240.986 176.918C240.872 176.795 240.725 176.709 240.563 176.668C240.423 176.572 240.252 176.531 240.084 176.553C239.909 176.533 239.733 176.573 239.585 176.668C239.43 176.713 239.291 176.799 239.182 176.918L238.99 177.187C238.875 177.378 238.815 177.598 238.817 177.821V178.148C238.876 178.364 238.988 178.563 239.144 178.724H239.182Z" fill="#000"/>
<path d="M247.874 172.844C248.361 172.588 248.818 172.278 249.236 171.921C249.334 171.822 249.413 171.704 249.467 171.575C249.505 171.437 249.505 171.291 249.467 171.152C249.503 171.02 249.503 170.881 249.467 170.749C249.413 170.62 249.334 170.502 249.236 170.403C249.03 170.202 248.756 170.085 248.469 170.076H248.181C248.007 170.135 247.849 170.234 247.72 170.364L247.548 170.48L247.759 170.326C247.452 170.56 247.124 170.766 246.78 170.941C246.659 170.999 246.559 171.093 246.493 171.21C246.393 171.32 246.321 171.451 246.281 171.594C246.253 171.734 246.253 171.878 246.281 172.017C246.3 172.159 246.346 172.296 246.416 172.421C246.565 172.662 246.797 172.84 247.068 172.92H247.356C247.545 172.917 247.73 172.864 247.893 172.767L247.874 172.844Z" fill="#000"/>
<path d="M249.543 170.02C248.756 169.213 247.989 168.367 247.26 167.483C247.053 167.286 246.778 167.176 246.492 167.176C246.213 167.179 245.945 167.289 245.744 167.483C245.543 167.69 245.427 167.964 245.418 168.252C245.437 168.538 245.552 168.809 245.744 169.021C246.473 169.886 247.222 170.731 248.008 171.557C248.215 171.755 248.49 171.865 248.776 171.865C249.061 171.865 249.336 171.755 249.543 171.557C249.74 171.35 249.85 171.075 249.85 170.789C249.85 170.503 249.74 170.227 249.543 170.02Z" fill="#000"/>
<path d="M232.486 153.742C234.203 154.762 236.113 155.415 238.094 155.66C240.075 155.904 242.085 155.736 243.998 155.164C244.273 155.089 244.53 154.96 244.755 154.784C244.98 154.609 245.168 154.391 245.309 154.143C245.449 153.895 245.54 153.622 245.575 153.339C245.61 153.055 245.59 152.768 245.514 152.493C245.438 152.218 245.31 151.961 245.135 151.735C244.96 151.51 244.742 151.322 244.495 151.181C244.247 151.04 243.974 150.949 243.691 150.914C243.409 150.878 243.122 150.899 242.847 150.975C242.425 151.09 242.003 151.205 241.581 151.282H241.235C241.581 151.282 240.948 151.282 240.871 151.282C240.443 151.311 240.013 151.311 239.585 151.282C239.21 151.341 238.828 151.341 238.453 151.282C238.76 151.282 238.799 151.282 238.453 151.282H238.127H237.648C237.225 151.282 236.803 151.071 236.4 150.936L235.94 150.763L235.633 150.648C235.902 150.763 235.94 150.763 235.633 150.648L234.482 150.052C233.987 149.764 233.4 149.684 232.846 149.828C232.293 149.972 231.819 150.329 231.527 150.821C231.243 151.32 231.165 151.91 231.308 152.466C231.452 153.022 231.805 153.501 232.294 153.8L232.486 153.742Z" fill="#000"/>
<path d="M235.806 161.256H235.595H235.153H235.038C234.866 161.303 234.699 161.368 234.539 161.448H234.347C234.199 161.547 234.058 161.656 233.925 161.775L233.772 161.948C233.653 162.076 233.55 162.218 233.465 162.371L233.35 162.621C233.306 162.699 233.274 162.783 233.254 162.871C233.206 163.034 233.206 163.207 233.254 163.37C233.26 163.539 233.306 163.704 233.388 163.851C233.471 163.993 233.582 164.118 233.714 164.216C233.845 164.317 233.995 164.389 234.156 164.427H234.501C234.723 164.426 234.942 164.367 235.134 164.254L235.383 164.043C235.538 163.888 235.651 163.696 235.71 163.486L235.595 163.774C235.631 163.683 235.683 163.598 235.748 163.524L235.537 163.774L235.767 163.543L235.518 163.755C235.602 163.679 235.7 163.62 235.806 163.582L235.499 163.697H235.825H235.499C235.594 163.678 235.691 163.678 235.786 163.697C235.96 163.709 236.134 163.669 236.285 163.582C236.44 163.527 236.581 163.439 236.698 163.322C236.814 163.206 236.903 163.064 236.957 162.909C237.036 162.761 237.075 162.596 237.072 162.429V162.083C237.013 161.872 236.901 161.68 236.746 161.525L236.496 161.333C236.297 161.22 236.073 161.16 235.844 161.16L235.806 161.256Z" fill="#000"/>
<path d="M232.16 172.172C232.496 172.172 232.818 172.038 233.055 171.8C233.293 171.562 233.426 171.24 233.426 170.903C233.426 170.567 233.293 170.244 233.055 170.006C232.818 169.768 232.496 169.635 232.16 169.635C231.824 169.635 231.502 169.768 231.264 170.006C231.027 170.244 230.894 170.567 230.894 170.903C230.894 171.24 231.027 171.562 231.264 171.8C231.502 172.038 231.824 172.172 232.16 172.172Z" fill="#000"/>
<path d="M227.555 173.326C227.891 173.326 228.213 173.192 228.451 172.954C228.688 172.716 228.822 172.394 228.822 172.057C228.822 171.721 228.688 171.398 228.451 171.161C228.213 170.923 227.891 170.789 227.555 170.789C227.22 170.789 226.897 170.923 226.66 171.161C226.422 171.398 226.289 171.721 226.289 172.057C226.289 172.394 226.422 172.716 226.66 172.954C226.897 173.192 227.22 173.326 227.555 173.326Z" fill="#000"/>
<path d="M230.338 176.802C230.673 176.802 230.996 176.669 231.233 176.431C231.471 176.193 231.604 175.87 231.604 175.534C231.604 175.198 231.471 174.875 231.233 174.637C230.996 174.399 230.673 174.266 230.338 174.266C230.002 174.266 229.68 174.399 229.442 174.637C229.205 174.875 229.071 175.198 229.071 175.534C229.071 175.87 229.205 176.193 229.442 176.431C229.68 176.669 230.002 176.802 230.338 176.802Z" fill="#000"/>
<path d="M247.144 154.107C247.362 153.786 247.561 153.452 247.739 153.108C250.713 146.958 245.725 140.02 240.583 136.946C234.04 133.102 225.08 133.333 218.134 135.985C215.669 136.97 213.429 138.447 211.552 140.327C209.675 142.207 208.2 144.45 207.217 146.92C198.564 147.304 190.217 152.685 189.642 162.082C189.501 164.387 189.95 166.689 190.946 168.77C189.494 170.325 188.384 172.168 187.688 174.18C186.992 176.192 186.726 178.328 186.907 180.45C187.087 182.571 187.711 184.631 188.738 186.496C189.764 188.361 191.17 189.989 192.865 191.274C192.511 192.774 192.472 194.332 192.75 195.848C192.504 197.793 192.975 199.761 194.074 201.383C197.105 205.86 203.111 209.55 208.521 207.571C208.772 207.485 208.99 207.322 209.141 207.104C209.293 206.886 209.372 206.626 209.366 206.36L209.519 206.245C210.709 204.996 210.383 202.92 210.421 201.344C210.421 199.038 210.421 196.732 210.421 194.407C210.421 194.291 210.421 194.195 210.421 194.099C210.59 193.627 210.615 193.115 210.492 192.629C210.369 192.143 210.104 191.704 209.73 191.37C210.067 190.985 210.278 190.507 210.336 189.999C210.395 189.491 210.297 188.977 210.056 188.526C212.873 186.526 215.166 183.874 216.739 180.796C218.313 177.717 219.12 174.304 219.093 170.846C220.46 170.076 221.652 169.031 222.597 167.778C223.541 166.525 224.216 165.089 224.581 163.562L224.811 163.274C226.601 162.727 228.244 161.782 229.619 160.511C230.995 159.241 232.066 157.675 232.754 155.933C236.342 157.067 240.544 157.854 243.768 156.644C243.979 157.739 244.19 158.815 244.458 159.911V163.754C244.468 163.999 244.547 164.236 244.686 164.438C244.826 164.639 245.02 164.797 245.245 164.892C245.471 164.987 245.719 165.015 245.96 164.973C246.202 164.932 246.426 164.822 246.607 164.658C246.831 164.65 247.051 164.592 247.25 164.489C247.449 164.386 247.622 164.24 247.758 164.062C248.829 162.59 249.353 160.791 249.241 158.974C249.129 157.156 248.388 155.435 247.144 154.107ZM232.582 139.425H232.294C232.294 139.425 232.294 139.425 232.294 139.309L232.582 139.425ZM201.595 198.212L201.442 198.385C201.442 198.173 201.576 197.962 201.653 197.751L201.595 198.212ZM206.564 184.49C205.096 183.633 203.833 182.466 202.861 181.07C201.82 179.2 201.416 177.041 201.71 174.92C203.509 174.847 205.299 174.628 207.063 174.266C207.371 174.22 207.665 174.109 207.927 173.94C207.927 174.574 207.927 175.189 207.927 175.861V180.647C207.932 180.968 207.99 181.286 208.099 181.588C207.765 182.64 207.245 183.622 206.564 184.49ZM213.817 173.536C213.817 173.651 213.817 173.786 213.817 173.901C213.81 173.799 213.81 173.696 213.817 173.594V173.536Z" fill="#000"/>
<path d="M224.869 197.039C223.2 198.327 223.219 204.131 223.334 204.534C223.526 205.173 223.956 205.712 224.535 206.042C225.114 206.371 225.797 206.464 226.442 206.302C229.184 205.789 231.756 204.6 233.925 202.843C235.026 202.218 235.962 201.34 236.656 200.28C237.35 199.221 237.782 198.011 237.916 196.751C238.012 193.945 227.172 195.233 224.869 197.039ZM225.31 201.171V201.287C225.31 201.287 225.31 201.229 225.31 201.171Z" fill="#000"/>
</g>
<defs>
<clipPath id="clip0_16_2410">
<rect width="520" height="398" fill="white"/>
</clipPath>
</defs>
</svg>
